<svg width="236" height="182" viewBox="0 0 236 182" fill="none" xmlns="http://www.w3.org/2000/svg">
<g clip-path="url(#clip0_3474_794)">
<path opacity="0.4" d="M150.416 141.534L145.472 143.973L199.014 173.614L203.958 171.189L150.416 141.534Z" fill="url(#paint0_linear_3474_794)"/>
<path d="M144.381 5.93442L145.27 114.878C145.27 122.219 149.734 130.75 155.242 133.928L196.739 160.088C196.739 160.088 200.109 158.469 201.891 157.272C203.834 155.966 205.05 153.218 205.05 149.387L205.027 46.0624C205.027 38.7216 200.563 30.1904 195.056 27.0128L155.219 4.01442C152.992 2.72802 150.934 2.51362 149.277 3.20162C146.832 4.21282 144.384 5.93122 144.384 5.93122L144.381 5.93442Z" fill="url(#paint1_linear_3474_794)"/>
<path d="M140.88 14.0752L140.902 117.4C140.902 124.741 145.366 133.272 150.874 136.45L190.71 159.448C196.218 162.629 200.682 159.253 200.682 151.909L200.659 48.584C200.659 41.2432 196.195 32.712 190.688 29.5344L150.851 6.53604C145.344 3.35524 140.88 6.73124 140.88 14.0752Z" fill="url(#paint2_linear_3474_794)"/>
<path d="M190.685 30.3537L150.848 7.35529C145.734 4.40489 141.59 7.53769 141.59 14.3537L141.613 117.944C141.613 124.76 145.757 132.68 150.87 135.634L190.707 158.632C195.821 161.582 199.965 158.45 199.965 151.634L199.942 48.0433C199.942 41.2273 195.798 33.3073 190.685 30.3537Z" fill="#012A56"/>
<path d="M197.114 44.6864V74.616V76.8912V102.661V104.933V109.054V111.33V114.568V116.84L197.091 151.688C197.091 155.742 194.218 157.381 190.685 155.339L171.315 144.155L166.592 141.429L150.851 132.338C150.749 132.28 150.643 132.216 150.541 132.152C149.994 131.803 149.462 131.39 148.957 130.917C146.346 128.482 144.445 124.587 144.445 121.285L144.467 14.28C144.467 10.2288 147.341 8.59041 150.874 10.6288L156.112 13.6528V15.1408C156.112 17.2816 157.622 19.8864 159.482 20.9616L162.528 22.7184L164.512 23.864L182.694 34.3632C184.554 35.4384 186.067 34.5744 186.067 32.4368V30.9456L190.714 33.6304C194.243 35.6688 197.12 40.6256 197.117 44.6768L197.114 44.6864Z" fill="#F0F0FF"/>
<path d="M202.051 65.9664L203.302 65.2432C203.398 65.1888 203.485 65.1792 203.558 65.208C203.667 65.2496 204.253 65.6112 204.253 65.6112L203.734 75.368C203.734 75.688 203.539 76.056 203.302 76.1936L202.403 77.304C202.403 77.304 201.824 76.984 201.744 76.9232C201.664 76.8624 201.616 76.7472 201.616 76.5872V66.7888C201.616 66.4688 201.811 66.1008 202.048 65.9632L202.051 65.9664Z" fill="#666666"/>
<path d="M202.694 66.3376L203.946 65.6144C204.186 65.4768 204.378 65.624 204.378 65.9408V75.7392C204.378 76.0592 204.182 76.4272 203.946 76.5648L202.694 77.288C202.454 77.4256 202.262 77.2784 202.262 76.9616V67.1632C202.262 66.8432 202.458 66.4752 202.694 66.3376Z" fill="#F2F2F2"/>
<path d="M200.701 59.6911L205.123 57.1343V55.1279L200.701 57.6815V59.6911Z" fill="#E6E6E6"/>
<g style="mix-blend-mode:screen">
<path d="M200.682 151.099L200.861 109.81L200.88 67.6848L200.886 57.1536V51.8896L200.89 49.256V48.5968L200.864 47.9344L200.838 47.272C200.822 47.0512 200.794 46.8336 200.771 46.6128C200.406 43.0992 199.238 39.6944 197.494 36.632C196.621 35.1024 195.59 33.656 194.39 32.36L193.936 31.8768C193.786 31.7136 193.613 31.5728 193.456 31.4224L192.966 30.9744C192.803 30.824 192.621 30.6992 192.448 30.5616L191.923 30.1552C191.744 30.0272 191.552 29.9152 191.366 29.7936C191.181 29.6752 190.995 29.5536 190.806 29.4384L190.237 29.1088C178.061 22.1136 165.904 15.0864 153.702 8.13916C165.821 15.2336 177.984 22.248 190.128 29.2944L190.698 29.624C190.883 29.7392 191.062 29.8608 191.248 29.976C191.43 30.0944 191.616 30.2096 191.792 30.3344L192.307 30.7376C192.477 30.8752 192.656 31 192.816 31.1472L193.296 31.592C193.453 31.7424 193.622 31.88 193.77 32.0432L194.218 32.52C195.402 33.8032 196.413 35.24 197.28 36.7536C199.011 39.784 200.176 43.1632 200.541 46.6352C200.563 46.8528 200.592 47.0704 200.608 47.2848L200.634 47.9376L200.659 48.5904V49.2496L200.662 51.8832L200.669 57.1472L200.678 67.6784L200.717 109.803L200.678 151.093L200.682 151.099Z" fill="white"/>
</g>
<path d="M173.978 25.2784C174 25.2048 174.01 25.1248 174.01 25.032C174.01 24.7888 173.93 24.5232 173.798 24.2992C173.693 24.1136 173.552 23.96 173.402 23.8704L162.877 17.7936C162.838 17.7712 162.8 17.7552 162.765 17.7424C162.483 17.6464 162.269 17.8544 162.269 18.2544C162.269 18.5008 162.352 18.7664 162.48 18.9872C162.586 19.1728 162.726 19.3264 162.877 19.416L173.402 25.4928C173.664 25.6464 173.888 25.5472 173.974 25.2784H173.978Z" fill="#012A56"/>
<path d="M173.978 25.2784C174 25.2048 174.01 25.1248 174.01 25.032C174.01 24.7888 173.93 24.5232 173.798 24.2992C173.693 24.1136 173.552 23.96 173.402 23.8704L162.877 17.7936C162.838 17.7712 162.8 17.7552 162.765 17.7424C162.742 17.8128 162.733 17.896 162.733 17.9856C162.733 18.232 162.816 18.4976 162.944 18.7184C163.05 18.904 163.19 19.0576 163.341 19.1472L173.862 25.224C173.901 25.2464 173.939 25.2624 173.974 25.2752L173.978 25.2784Z" fill="#049DDF"/>
<path d="M178.096 27.3905C178.096 28.0113 177.661 28.2641 177.12 27.9537C176.845 27.7937 176.592 27.5185 176.419 27.1953C176.246 26.8977 176.144 26.5649 176.144 26.2641C176.144 25.6433 176.579 25.4033 177.12 25.7137C177.27 25.7937 177.408 25.9217 177.533 26.0593C177.866 26.4273 178.096 26.9425 178.096 27.3937V27.3905Z" fill="#000019"/>
<path d="M177.55 27.5625C177.782 27.427 177.779 26.9905 177.544 26.5877C177.308 26.1849 176.93 25.9683 176.698 26.1039C176.466 26.2395 176.469 26.6759 176.704 27.0787C176.94 27.4815 177.318 27.6981 177.55 27.5625Z" fill="#111433"/>
<path d="M177.463 27.4134C177.648 27.3054 177.646 26.9582 177.458 26.6378C177.271 26.3174 176.97 26.1451 176.785 26.2531C176.6 26.361 176.602 26.7082 176.79 27.0286C176.977 27.349 177.279 27.5213 177.463 27.4134Z" fill="#049DDF"/>
<path d="M177.424 27.3471C177.588 27.2516 177.585 26.9442 177.42 26.6604C177.254 26.3766 176.987 26.2239 176.824 26.3194C176.66 26.4148 176.663 26.7222 176.828 27.006C176.994 27.2898 177.261 27.4425 177.424 27.3471Z" fill="#28DCF3"/>
<path d="M177.29 27.1176C177.38 27.065 177.379 26.8949 177.287 26.7378C177.195 26.5806 177.048 26.4959 176.958 26.5485C176.868 26.6011 176.869 26.7712 176.961 26.9283C177.053 27.0855 177.2 27.1702 177.29 27.1176Z" fill="#092736"/>
<path d="M177.25 27.0487C177.319 27.0086 177.318 26.8796 177.248 26.7606C177.179 26.6416 177.067 26.5776 176.998 26.6178C176.929 26.6579 176.93 26.7869 177 26.9059C177.069 27.0249 177.181 27.0889 177.25 27.0487Z" fill="#000019"/>
<path d="M177.291 26.6284C177.321 26.5936 177.272 26.5018 177.181 26.4234C177.09 26.3449 176.991 26.3096 176.961 26.3444C176.931 26.3792 176.981 26.471 177.072 26.5495C177.163 26.6279 177.261 26.6632 177.291 26.6284Z" fill="white"/>
<path d="M177.294 27.4328C177.324 27.398 177.275 27.3062 177.184 27.2278C177.093 27.1494 176.994 27.114 176.964 27.1489C176.934 27.1837 176.984 27.2755 177.075 27.3539C177.166 27.4323 177.264 27.4677 177.294 27.4328Z" fill="white"/>
<path opacity="0.3" d="M177.683 26.5521C177.718 27.1153 177.302 27.4609 176.765 27.3329C176.64 27.3105 176.525 27.2625 176.419 27.1953C176.246 26.8977 176.144 26.5649 176.144 26.2641C176.144 25.6433 176.579 25.4033 177.12 25.7137C177.27 25.7937 177.408 25.9217 177.533 26.0593C177.613 26.2097 177.67 26.3825 177.683 26.5521Z" fill="url(#paint3_linear_3474_794)"/>
<path opacity="0.5" d="M166.851 113.458L150.736 104.152C149.885 103.659 149.194 104.181 149.194 105.317V123.237C149.194 124.373 149.885 125.691 150.736 126.184L166.851 135.49C167.702 135.982 168.394 135.461 168.394 134.325V116.405C168.394 115.269 167.702 113.95 166.851 113.458Z" fill="url(#paint4_linear_3474_794)"/>
<path d="M164.342 114.427L148.227 105.122C147.376 104.629 146.685 105.15 146.685 106.286V124.206C146.685 125.342 147.376 126.661 148.227 127.154L164.342 136.459C165.194 136.952 165.885 136.43 165.885 135.294V117.374C165.885 116.238 165.194 114.92 164.342 114.427Z" fill="url(#paint5_linear_3474_794)"/>
<path d="M163.904 114.738L147.789 105.432C146.938 104.939 146.246 105.461 146.246 106.597V124.517C146.246 125.653 146.938 126.971 147.789 127.464L163.904 136.77C164.755 137.262 165.446 136.741 165.446 135.605V117.685C165.446 116.549 164.755 115.23 163.904 114.738Z" fill="white"/>
<path opacity="0.5" d="M166.851 61.88L150.736 52.5744C149.885 52.0816 149.194 52.6032 149.194 53.7392V71.6592C149.194 72.7952 149.885 74.1136 150.736 74.6064L166.851 83.912C167.702 84.4048 168.394 83.8832 168.394 82.7472V64.8272C168.394 63.6912 167.702 62.3728 166.851 61.88Z" fill="url(#paint6_linear_3474_794)"/>
<path d="M164.342 62.8497L148.227 53.5441C147.376 53.0513 146.685 53.5729 146.685 54.7089V72.6289C146.685 73.7649 147.376 75.0833 148.227 75.5761L164.342 84.8817C165.194 85.3745 165.885 84.8529 165.885 83.7169V65.7969C165.885 64.6609 165.194 63.3425 164.342 62.8497Z" fill="url(#paint7_linear_3474_794)"/>
<path d="M163.904 63.16L147.789 53.8544C146.938 53.3616 146.246 53.8832 146.246 55.0192V72.9392C146.246 74.0752 146.938 75.3936 147.789 75.8864L163.904 85.192C164.755 85.6848 165.446 85.1632 165.446 84.0272V66.1072C165.446 64.9712 164.755 63.6528 163.904 63.16Z" fill="white"/>
<path opacity="0.5" d="M166.851 87.704L150.736 78.3984C149.885 77.9056 149.194 78.4272 149.194 79.5632V97.4832C149.194 98.6192 149.885 99.9376 150.736 100.43L166.851 109.736C167.702 110.229 168.394 109.707 168.394 108.571V90.6512C168.394 89.5152 167.702 88.1968 166.851 87.704Z" fill="url(#paint8_linear_3474_794)"/>
<path d="M164.342 88.6737L148.227 79.3681C147.376 78.8753 146.685 79.3969 146.685 80.5329V98.4529C146.685 99.5889 147.376 100.907 148.227 101.4L164.342 110.706C165.194 111.199 165.885 110.677 165.885 109.541V91.6209C165.885 90.4849 165.194 89.1665 164.342 88.6737Z" fill="url(#paint9_linear_3474_794)"/>
<path d="M163.904 88.9872L147.789 79.6816C146.938 79.1888 146.246 79.7104 146.246 80.8464V98.7664C146.246 99.9024 146.938 101.221 147.789 101.714L163.904 111.019C164.755 111.512 165.446 110.99 165.446 109.854V91.9344C165.446 90.7984 164.755 89.48 163.904 88.9872Z" fill="white"/>
<path opacity="0.5" d="M166.851 35.976L150.736 26.6704C149.885 26.1776 149.194 26.6992 149.194 27.8352V45.7552C149.194 46.8912 149.885 48.2096 150.736 48.7024L166.851 58.008C167.702 58.5008 168.394 57.9792 168.394 56.8432V38.9232C168.394 37.7872 167.702 36.4688 166.851 35.976Z" fill="url(#paint10_linear_3474_794)"/>
<path d="M164.342 36.9457L148.227 27.6401C147.376 27.1473 146.685 27.6689 146.685 28.8049V46.7249C146.685 47.8609 147.376 49.1793 148.227 49.6721L164.342 58.9777C165.194 59.4705 165.885 58.9489 165.885 57.8129V39.8929C165.885 38.7569 165.194 37.4385 164.342 36.9457Z" fill="url(#paint11_linear_3474_794)"/>
<path d="M163.904 37.2592L147.789 27.9536C146.938 27.4608 146.246 27.9824 146.246 29.1184V47.0384C146.246 48.1744 146.938 49.4928 147.789 49.9856L163.904 59.2912C164.755 59.784 165.446 59.2624 165.446 58.1264V40.2064C165.446 39.0704 164.755 37.752 163.904 37.2592Z" fill="white"/>
<path d="M179.354 46.9616L172.48 42.9936C172.195 42.8304 171.965 42.3888 171.965 42.0112V40.8624C171.965 40.4848 172.195 40.3088 172.48 40.4752L179.354 44.4432C179.638 44.6064 179.869 45.048 179.869 45.4256V46.5744C179.869 46.952 179.638 47.128 179.354 46.9616Z" fill="black"/>
<path d="M193.488 58.5616L172.221 46.2832C172.08 46.2 171.965 45.9824 171.965 45.7904V45.2592C171.965 45.0704 172.08 44.984 172.221 45.064L193.488 57.3424C193.629 57.4256 193.744 57.6432 193.744 57.8352V58.3664C193.744 58.5552 193.629 58.6416 193.488 58.5616Z" fill="#B3B3B3"/>
<path d="M193.488 60.9808L172.221 48.7024C172.08 48.6192 171.965 48.4016 171.965 48.2096V47.6784C171.965 47.4896 172.08 47.4032 172.221 47.4832L193.488 59.7616C193.629 59.8448 193.744 60.0624 193.744 60.2544V60.7856C193.744 60.9744 193.629 61.0608 193.488 60.9808Z" fill="#B3B3B3"/>
<path d="M178.979 55.0192L172.224 51.1184C172.083 51.0352 171.968 50.8176 171.968 50.6256V50.0944C171.968 49.9056 172.083 49.8192 172.224 49.8992L178.979 53.8C179.12 53.8832 179.235 54.1008 179.235 54.2928V54.824C179.235 55.0128 179.12 55.0992 178.979 55.0192Z" fill="#B3B3B3"/>
<path d="M179.354 72.7184L172.48 68.7504C172.195 68.5872 171.965 68.1456 171.965 67.768V66.6192C171.965 66.2416 172.195 66.0656 172.48 66.232L179.354 70.2C179.638 70.3632 179.869 70.8048 179.869 71.1824V72.3312C179.869 72.7088 179.638 72.8848 179.354 72.7184Z" fill="black"/>
<path d="M183.056 74.8561L181.568 73.9985C181.283 73.8353 181.053 73.3937 181.053 73.0161V71.8673C181.053 71.4897 181.283 71.3137 181.568 71.4801L183.056 72.3377C183.341 72.5009 183.571 72.9425 183.571 73.3201V74.4689C183.571 74.8465 183.341 75.0225 183.056 74.8561Z" fill="black"/>
<path d="M192.883 80.5297L185.075 76.0209C184.79 75.8577 184.56 75.4161 184.56 75.0385V73.8897C184.56 73.5121 184.79 73.3361 185.075 73.5025L192.883 78.0113C193.168 78.1745 193.398 78.6161 193.398 78.9937V80.1425C193.398 80.5201 193.168 80.6961 192.883 80.5297Z" fill="black"/>
<path d="M193.488 84.3184L172.221 72.04C172.08 71.9568 171.965 71.7392 171.965 71.5472V71.016C171.965 70.8272 172.08 70.7408 172.221 70.8208L193.488 83.0992C193.629 83.1824 193.744 83.4 193.744 83.592V84.1232C193.744 84.312 193.629 84.3984 193.488 84.3184Z" fill="#B3B3B3"/>
<path d="M193.488 86.7344L172.221 74.456C172.08 74.3728 171.965 74.1552 171.965 73.9632V73.432C171.965 73.2432 172.08 73.1568 172.221 73.2368L193.488 85.5152C193.629 85.5984 193.744 85.816 193.744 86.008V86.5392C193.744 86.728 193.629 86.8144 193.488 86.7344Z" fill="#B3B3B3"/>
<path d="M178.979 80.776L172.224 76.8752C172.083 76.792 171.968 76.5744 171.968 76.3824V75.8512C171.968 75.6624 172.083 75.576 172.224 75.656L178.979 79.5568C179.12 79.64 179.235 79.8576 179.235 80.0496V80.5808C179.235 80.7696 179.12 80.856 178.979 80.776Z" fill="#B3B3B3"/>
<path d="M183.251 100.725L172.48 94.5041C172.195 94.3409 171.965 93.8993 171.965 93.5217V92.3729C171.965 91.9953 172.195 91.8193 172.48 91.9857L183.251 98.2065C183.536 98.3697 183.766 98.8113 183.766 99.1889V100.338C183.766 100.715 183.536 100.891 183.251 100.725Z" fill="black"/>
<path d="M193.488 110.072L172.221 97.7937C172.08 97.7105 171.965 97.4929 171.965 97.3009V96.7697C171.965 96.5809 172.08 96.4945 172.221 96.5745L193.488 108.853C193.629 108.936 193.744 109.154 193.744 109.346V109.877C193.744 110.066 193.629 110.152 193.488 110.072Z" fill="#B3B3B3"/>
<path d="M193.488 112.491L172.221 100.213C172.08 100.13 171.965 99.9121 171.965 99.7201V99.1889C171.965 99.0001 172.08 98.9137 172.221 98.9937L193.488 111.272C193.629 111.355 193.744 111.573 193.744 111.765V112.296C193.744 112.485 193.629 112.571 193.488 112.491Z" fill="#B3B3B3"/>
<path d="M178.979 106.53L172.224 102.629C172.083 102.546 171.968 102.328 171.968 102.136V101.605C171.968 101.416 172.083 101.33 172.224 101.41L178.979 105.31C179.12 105.394 179.235 105.611 179.235 105.803V106.334C179.235 106.523 179.12 106.61 178.979 106.53Z" fill="#B3B3B3"/>
<path d="M180.733 125.026L172.48 120.261C172.195 120.098 171.965 119.656 171.965 119.279V118.13C171.965 117.752 172.195 117.576 172.48 117.743L180.733 122.507C181.018 122.671 181.248 123.112 181.248 123.49V124.639C181.248 125.016 181.018 125.192 180.733 125.026Z" fill="black"/>
<path d="M193.488 135.829L172.221 123.551C172.08 123.467 171.965 123.25 171.965 123.058V122.527C171.965 122.338 172.08 122.251 172.221 122.331L193.488 134.61C193.629 134.693 193.744 134.911 193.744 135.103V135.634C193.744 135.823 193.629 135.909 193.488 135.829Z" fill="#B3B3B3"/>
<path d="M193.488 138.245L172.221 125.967C172.08 125.883 171.965 125.666 171.965 125.474V124.943C171.965 124.754 172.08 124.667 172.221 124.747L193.488 137.026C193.629 137.109 193.744 137.327 193.744 137.519V138.05C193.744 138.239 193.629 138.325 193.488 138.245Z" fill="#B3B3B3"/>
<path d="M178.979 132.287L172.224 128.386C172.083 128.303 171.968 128.085 171.968 127.893V127.362C171.968 127.173 172.083 127.087 172.224 127.167L178.979 131.067C179.12 131.151 179.235 131.368 179.235 131.56V132.091C179.235 132.28 179.12 132.367 178.979 132.287Z" fill="#B3B3B3"/>
<path d="M153.923 73.5184L155.933 64.6672L157.578 66.0496L155.568 74.9008L153.923 73.5184Z" fill="#FF5347"/>
<path d="M153.44 65.1985L150.426 66.9201L150.269 66.6513L149.232 64.8625L152.246 63.1409L153.44 65.1985Z" fill="#07F184"/>
<path d="M150.426 66.9199L150.269 67.0095L149.232 67.6015L149.075 67.3327L148.038 65.5407L149.075 64.9519L149.232 64.8623L150.269 66.6511L150.426 66.9199Z" fill="#00BF5B"/>
<path d="M153.44 72.1231L152.246 72.8047L149.232 67.6015L150.269 67.0095L150.426 66.9199L153.44 72.1231Z" fill="#28DCF3"/>
<path d="M162.269 72.3887L161.232 72.9807L161.075 73.0703L158.058 67.8671L159.251 67.1855L162.269 72.3887Z" fill="#049DDF"/>
<path d="M163.462 74.4465L162.422 75.0385L162.269 75.1281L161.232 73.3393L161.075 73.0705L161.232 72.9809L162.269 72.3889L162.422 72.6577L163.462 74.4465Z" fill="#004C84"/>
<path d="M162.269 75.1279L159.251 76.8463L158.058 74.7887L161.075 73.0703L161.232 73.3391L162.269 75.1279Z" fill="#7161DA"/>
<path d="M161.485 45.7329C161.491 46.5809 161.014 47.1473 160.045 47.2273C158.118 47.3905 154.982 45.5761 153.043 43.1697C152.08 41.9761 151.594 40.8625 151.581 40.0209C151.581 39.9729 151.581 38.3569 151.584 37.7297C151.584 37.7553 151.584 37.7809 151.59 37.8065C151.59 37.8289 151.594 37.8545 151.597 37.8801C151.597 37.8865 151.597 37.8929 151.597 37.8993C151.597 37.9185 151.6 37.9409 151.603 37.9633C151.606 37.9953 151.613 38.0241 151.619 38.0561C151.622 38.0817 151.629 38.1073 151.632 38.1329C151.645 38.1905 151.658 38.2481 151.67 38.3057C151.677 38.3345 151.686 38.3633 151.693 38.3953C151.757 38.6321 151.853 38.8785 151.974 39.1377C151.987 39.1665 152 39.1953 152.016 39.2241C152.035 39.2657 152.054 39.3041 152.077 39.3457C152.09 39.3745 152.106 39.4033 152.122 39.4353C152.138 39.4673 152.157 39.5025 152.176 39.5345C152.195 39.5665 152.214 39.6017 152.234 39.6369C152.253 39.6721 152.272 39.7041 152.294 39.7393C152.31 39.7681 152.33 39.7969 152.349 39.8257C152.374 39.8705 152.403 39.9121 152.432 39.9569C152.451 39.9889 152.47 40.0177 152.493 40.0497C152.515 40.0849 152.538 40.1201 152.563 40.1553C152.611 40.2257 152.659 40.2961 152.71 40.3665C152.736 40.4017 152.762 40.4369 152.787 40.4721C152.867 40.5777 152.95 40.6865 153.037 40.7953C154.976 43.2017 158.112 45.0161 160.038 44.8529C161.05 44.7665 161.526 44.1521 161.472 43.2401C161.472 43.2305 161.475 43.2209 161.475 43.2081C161.478 43.8161 161.469 45.1921 161.475 45.7329H161.485Z" fill="#07F184"/>
<path d="M161.485 48.0945C161.491 48.9425 161.014 49.5089 160.045 49.5889C158.118 49.7521 154.982 47.9377 153.043 45.5313C152.08 44.3377 151.594 43.2241 151.581 42.3825C151.581 42.3345 151.581 40.7185 151.584 40.0913C151.584 40.1169 151.584 40.1425 151.59 40.1681C151.59 40.1905 151.594 40.2161 151.597 40.2417C151.597 40.2481 151.597 40.2545 151.597 40.2609C151.597 40.2801 151.6 40.3025 151.603 40.3249C151.606 40.3569 151.613 40.3857 151.619 40.4177C151.622 40.4433 151.629 40.4689 151.632 40.4945C151.645 40.5521 151.658 40.6097 151.67 40.6673C151.677 40.6961 151.686 40.7249 151.693 40.7569C151.757 40.9937 151.853 41.2401 151.974 41.4993C151.987 41.5281 152 41.5569 152.016 41.5857C152.035 41.6273 152.054 41.6657 152.077 41.7073C152.09 41.7361 152.106 41.7649 152.122 41.7969C152.138 41.8289 152.157 41.8641 152.176 41.8961C152.195 41.9281 152.214 41.9633 152.234 41.9985C152.253 42.0337 152.272 42.0657 152.294 42.1009C152.31 42.1297 152.33 42.1585 152.349 42.1873C152.374 42.2321 152.403 42.2737 152.432 42.3185C152.451 42.3505 152.47 42.3793 152.493 42.4113C152.515 42.4465 152.538 42.4817 152.563 42.5169C152.611 42.5873 152.659 42.6577 152.71 42.7281C152.736 42.7633 152.762 42.7985 152.787 42.8337C152.867 42.9393 152.95 43.0481 153.037 43.1569C154.976 45.5633 158.112 47.3777 160.038 47.2145C161.05 47.1281 161.526 46.5137 161.472 45.6017C161.472 45.5921 161.475 45.5825 161.475 45.5697C161.478 46.1777 161.469 47.5537 161.475 48.0945H161.485Z" fill="#28DCF3"/>
<path d="M161.485 50.4561C161.491 51.3041 161.014 51.8705 160.045 51.9505C158.118 52.1137 154.982 50.2993 153.043 47.8929C152.08 46.6993 151.594 45.5857 151.581 44.7441C151.581 44.6961 151.581 43.0801 151.584 42.4529C151.584 42.4785 151.584 42.5041 151.59 42.5297C151.59 42.5521 151.594 42.5777 151.597 42.6033C151.597 42.6097 151.597 42.6161 151.597 42.6225C151.597 42.6417 151.6 42.6641 151.603 42.6865C151.606 42.7185 151.613 42.7473 151.619 42.7793C151.622 42.8049 151.629 42.8305 151.632 42.8561C151.645 42.9137 151.658 42.9713 151.67 43.0289C151.677 43.0577 151.686 43.0865 151.693 43.1185C151.757 43.3553 151.853 43.6017 151.974 43.8609C151.987 43.8897 152 43.9185 152.016 43.9473C152.035 43.9889 152.054 44.0273 152.077 44.0689C152.09 44.0977 152.106 44.1265 152.122 44.1585C152.138 44.1905 152.157 44.2257 152.176 44.2577C152.195 44.2897 152.214 44.3249 152.234 44.3601C152.253 44.3953 152.272 44.4273 152.294 44.4625C152.31 44.4913 152.33 44.5201 152.349 44.5489C152.374 44.5937 152.403 44.6353 152.432 44.6801C152.451 44.7121 152.47 44.7409 152.493 44.7729C152.515 44.8081 152.538 44.8433 152.563 44.8785C152.611 44.9489 152.659 45.0193 152.71 45.0897C152.736 45.1249 152.762 45.1601 152.787 45.1953C152.867 45.3009 152.95 45.4097 153.037 45.5185C154.976 47.9249 158.112 49.7393 160.038 49.5761C161.05 49.4897 161.526 48.8753 161.472 47.9633C161.472 47.9537 161.475 47.9441 161.475 47.9313C161.478 48.5393 161.469 49.9153 161.475 50.4561H161.485Z" fill="#049DDF"/>
<path d="M151.587 37.4929C151.587 37.5089 151.587 37.5953 151.587 37.7297C151.584 37.6465 151.584 37.5697 151.587 37.4929Z" fill="#07F184"/>
<path d="M161.178 44.3308C162.126 43.1838 160.814 40.5354 158.249 38.4154C155.684 36.2955 152.836 35.5069 151.888 36.654C150.94 37.8011 152.251 40.4495 154.816 42.5694C157.382 44.6893 160.23 45.4779 161.178 44.3308Z" fill="#28DCF3"/>
<path d="M158.496 44.6512C157.901 44.4752 157.242 44.1872 156.55 43.7872C156.406 43.704 156.266 43.6176 156.125 43.528C154.362 42.408 152.861 40.8272 152.106 39.3872C151.776 38.7568 151.587 38.1552 151.584 37.6304C151.574 35.8128 153.786 35.624 156.518 37.2112L156.534 40.5008L158.496 44.6544V44.6512Z" fill="#7161DA"/>
<path d="M161.488 43.368C161.488 43.7616 161.389 44.0784 161.197 44.3184L156.534 40.4976L156.518 37.208C159.254 38.792 161.478 41.5504 161.485 43.368H161.488Z" fill="#FCD647"/>
<path d="M161.197 44.3184C160.733 44.904 159.747 45.0224 158.496 44.6512L156.534 40.4976L161.197 44.3184Z" fill="#FF5347"/>
<path d="M152.304 126.095L148.858 124.104V120.149L152.304 122.139V126.095Z" fill="#FF5347"/>
<path d="M152.304 123.023L148.858 121.032V120.149L152.304 122.139V123.023Z" fill="#FCD647"/>
<path d="M155.75 128.082L152.304 126.094V118.978L155.75 120.965V128.082Z" fill="#049DDF"/>
<path d="M155.75 121.848L152.304 119.861V118.978L155.75 120.965V121.848Z" fill="#28DCF3"/>
<path d="M159.197 130.072L155.75 128.082V117.848L159.197 119.838V130.072Z" fill="#00BF5B"/>
<path d="M159.197 120.722L155.75 118.731V117.848L159.197 119.838V120.722Z" fill="#07F184"/>
<path d="M162.643 132.062L159.197 130.072V116.648L162.643 118.638V132.062Z" fill="#3B3BB7"/>
<path d="M162.643 119.522L159.197 117.531V116.648L162.643 118.638V119.522Z" fill="#7161DA"/>
<path d="M158.454 88.7664L159.824 103.256L150.31 99.016L148.938 84.5264L158.454 88.7664Z" fill="#012A56"/>
<path d="M160.314 93.6335V104.84L150.365 99.0959V84.7695L157.594 88.9423L160.314 93.6335Z" fill="#004C84"/>
<path d="M160.314 93.6336L157.594 92.0624V88.9424L160.314 93.6336Z" fill="#049DDF"/>
<path d="M152.125 96.2191L150.992 94.2671L154.141 92.4719L155.274 94.4239L152.125 96.2191Z" fill="#049DDF"/>
<path d="M156.966 98.7249L153.578 92.7792L154.723 92.1584L158.112 98.1041L156.966 98.7249Z" fill="#FCD647"/>
<path d="M157.386 99.4801L156.272 97.5185L161.997 94.4561L163.11 96.4177L157.386 99.4801Z" fill="#07F184"/>
<path d="M160.912 93.1985L163.632 94.7665V97.8865L160.912 93.1985Z" fill="#07F184"/>
<path d="M153.546 92.7919L154.707 94.7855L155.859 94.1295L154.726 92.1455L153.546 92.7919Z" fill="#FF5347"/>
<path opacity="0.2" d="M194.355 93.9281C194.355 94.1777 194.349 94.4209 194.346 94.6641C194.339 94.8977 194.336 95.1281 194.32 95.3553C194.294 96.0273 194.24 96.6833 194.166 97.3169C194.15 97.4705 194.131 97.6209 194.112 97.7681C194.096 97.9089 194.077 98.0529 194.051 98.1905C194.032 98.3313 194.013 98.4657 193.987 98.6001C193.968 98.7409 193.942 98.8849 193.914 99.0289C193.862 99.3169 193.808 99.5953 193.744 99.8737C193.728 99.9473 193.709 100.027 193.69 100.104C193.654 100.267 193.616 100.427 193.571 100.587C193.507 100.856 193.43 101.125 193.354 101.384C193.27 101.669 193.181 101.95 193.078 102.226C193.024 102.386 192.963 102.539 192.906 102.693C192.867 102.802 192.822 102.91 192.778 103.022C192.714 103.192 192.643 103.355 192.57 103.518C192.49 103.707 192.4 103.893 192.317 104.075C192.243 104.229 192.163 104.379 192.086 104.526C192.042 104.61 191.997 104.696 191.946 104.779V104.786C191.91 104.85 191.875 104.91 191.84 104.974C191.76 105.115 191.68 105.253 191.59 105.394C191.494 105.554 191.395 105.707 191.296 105.861C191.062 106.203 190.822 106.536 190.57 106.85C190.442 107.01 190.307 107.17 190.173 107.323C190.038 107.474 189.898 107.621 189.76 107.771C189.619 107.915 189.475 108.056 189.331 108.194C189.162 108.354 188.989 108.507 188.81 108.651C188.701 108.747 188.586 108.837 188.47 108.926C188.362 109.01 188.253 109.09 188.141 109.17C188.032 109.253 187.917 109.33 187.798 109.41C187.683 109.49 187.565 109.563 187.446 109.634C187.283 109.739 187.114 109.838 186.938 109.931C186.81 110.002 186.698 110.056 186.618 110.094C186.608 110.101 186.598 110.104 186.589 110.11C186.56 110.13 186.525 110.146 186.493 110.162C186.454 110.181 186.432 110.19 186.432 110.19C182.013 112.344 176.093 111.806 169.584 108.05C155.904 100.152 144.813 81.0193 144.813 65.3233C144.813 58.0049 147.226 52.7185 151.19 49.9761C151.251 49.9249 151.309 49.8865 151.37 49.8577C151.379 49.8481 151.395 49.8417 151.408 49.8321C151.696 49.6273 151.994 49.4481 152.304 49.2849C152.643 49.0993 152.992 48.9329 153.35 48.7825C153.59 48.6833 153.827 48.5937 154.07 48.5073C154.195 48.4625 154.32 48.4241 154.445 48.3825C155.702 47.9953 157.056 47.7969 158.496 47.7969C158.694 47.7969 158.893 47.8033 159.098 47.8129C159.267 47.8225 159.43 47.8289 159.6 47.8385C159.974 47.8673 160.352 47.9089 160.73 47.9633C160.899 47.9889 161.072 48.0145 161.248 48.0433C161.597 48.0977 161.946 48.1681 162.298 48.2481C162.477 48.2865 162.656 48.3313 162.835 48.3761C163.014 48.4209 163.194 48.4657 163.373 48.5201C163.552 48.5713 163.731 48.6193 163.914 48.6801C164.352 48.8081 164.79 48.9649 165.232 49.1313C165.43 49.2017 165.629 49.2753 165.83 49.3617C165.958 49.4129 166.093 49.4673 166.224 49.5249C166.384 49.5889 166.544 49.6593 166.701 49.7297C167.645 50.1489 168.608 50.6417 169.581 51.2017C183.261 59.1025 194.352 78.2321 194.352 93.9281H194.355Z" fill="#191932"/>
<path opacity="0.8" d="M140.051 119.403C140.051 125.154 138.403 129.515 135.626 132.187C131.75 133.621 126.784 132.958 121.37 129.832C109.002 122.69 98.9664 105.387 98.9664 91.1887C98.9664 85.4384 100.614 81.0768 103.392 78.4048C107.267 76.9712 112.23 77.6303 117.648 80.7567C130.016 87.9023 140.051 105.205 140.051 119.403Z" fill="white"/>
<path d="M133.466 133.608C129.971 134.03 125.872 133.07 121.482 130.536C108.739 123.179 98.4064 105.355 98.4064 90.7311C98.4064 85.9631 99.504 82.1231 101.424 79.3711C97.5904 81.7647 95.2384 86.6543 95.2384 93.5343C95.2384 107.733 105.27 125.032 117.648 132.177C124.038 135.867 129.805 136.123 133.888 133.547C133.747 133.569 133.606 133.592 133.466 133.608Z" fill="#E2E2FC"/>
<path d="M118.006 77.784C117.03 77.2208 116.07 76.7279 115.123 76.3087C114.963 76.2415 114.806 76.1712 114.646 76.1072C114.515 76.0464 114.381 75.992 114.253 75.9408C114.054 75.8576 113.856 75.7839 113.654 75.7135C113.213 75.5439 112.774 75.3904 112.336 75.2592C112.154 75.2016 111.974 75.1504 111.795 75.1024C111.616 75.0448 111.437 75 111.258 74.9552C111.078 74.9104 110.899 74.8656 110.72 74.8272C110.368 74.7472 110.019 74.6768 109.67 74.6224C109.498 74.5936 109.322 74.568 109.152 74.5424C108.774 74.488 108.397 74.4495 108.022 74.4175C107.853 74.4079 107.69 74.4048 107.52 74.3952C107.315 74.3856 107.117 74.3792 106.918 74.3792C105.482 74.3792 104.128 74.5775 102.867 74.9679C102.742 75.0063 102.621 75.0448 102.496 75.0896C102.25 75.176 102.013 75.2656 101.773 75.3648C101.414 75.5152 101.066 75.6816 100.73 75.8672C100.419 76.0304 100.122 76.2096 99.8336 76.4144C99.8176 76.424 99.8016 76.4304 99.792 76.44C99.7344 76.4688 99.6736 76.5103 99.6128 76.5583C95.648 79.3007 93.2352 84.5839 93.2352 91.9055C93.2352 107.605 104.326 126.734 118.006 134.632C124.512 138.389 130.435 138.926 134.854 136.773C134.854 136.773 134.874 136.763 134.912 136.741C134.944 136.728 134.976 136.712 135.008 136.693C135.018 136.686 135.027 136.683 135.037 136.677C135.117 136.638 135.226 136.584 135.357 136.514C135.53 136.418 135.699 136.318 135.862 136.216C135.984 136.146 136.102 136.069 136.218 135.992C136.336 135.912 136.451 135.835 136.56 135.752C136.669 135.672 136.778 135.592 136.89 135.509C137.002 135.419 137.117 135.33 137.226 135.234C137.405 135.09 137.581 134.936 137.75 134.776C137.894 134.638 138.038 134.498 138.176 134.354C138.317 134.203 138.454 134.056 138.589 133.906C138.723 133.752 138.858 133.592 138.989 133.432C139.242 133.118 139.482 132.786 139.715 132.443C139.814 132.29 139.914 132.136 140.01 131.976C140.099 131.835 140.176 131.698 140.256 131.557C140.291 131.493 140.326 131.432 140.362 131.368V131.362C140.413 131.278 140.458 131.195 140.499 131.109C140.576 130.962 140.656 130.811 140.73 130.658C140.813 130.472 140.902 130.29 140.982 130.101C141.059 129.934 141.126 129.771 141.194 129.602C141.238 129.493 141.283 129.384 141.322 129.272C141.382 129.118 141.44 128.965 141.494 128.805C141.597 128.533 141.686 128.248 141.77 127.963C141.85 127.707 141.923 127.438 141.987 127.17C142.032 127.01 142.074 126.85 142.109 126.686C142.128 126.613 142.147 126.533 142.163 126.456C142.227 126.178 142.282 125.899 142.333 125.611C142.362 125.467 142.387 125.323 142.406 125.182C142.432 125.048 142.451 124.914 142.47 124.776C142.496 124.635 142.515 124.491 142.531 124.354C142.55 124.203 142.57 124.053 142.586 123.899C142.659 123.269 142.714 122.61 142.739 121.938C142.755 121.71 142.758 121.48 142.765 121.246C142.771 121.003 142.774 120.76 142.774 120.51C142.774 104.811 131.683 85.6848 118.006 77.784ZM117.648 132.178C105.27 125.032 95.2384 107.733 95.2384 93.5344C95.2384 86.6544 97.5904 81.7648 101.424 79.3712C102.042 78.9808 102.701 78.6608 103.392 78.4048C107.267 76.9712 112.23 77.6303 117.648 80.7567C130.016 87.9023 140.051 105.205 140.051 119.403C140.051 125.154 138.403 129.515 135.626 132.187C135.088 132.706 134.506 133.16 133.888 133.547C129.805 136.123 124.038 135.867 117.648 132.178Z" fill="#07F184"/>
<path d="M147.6 117.723C147.6 124.411 145.584 129.397 142.221 132.302C141.936 132.546 141.594 132.811 141.216 133.08C139.322 134.418 136.49 135.925 135.354 136.514C135.526 136.418 135.696 136.318 135.862 136.216C135.981 136.146 136.102 136.072 136.214 135.992C136.333 135.912 136.448 135.838 136.557 135.752C136.666 135.672 136.774 135.592 136.886 135.509C137.002 135.419 137.117 135.33 137.226 135.234C137.405 135.09 137.578 134.936 137.747 134.776C137.898 134.642 138.035 134.498 138.176 134.354C138.32 134.21 138.461 134.059 138.589 133.906C138.73 133.755 138.858 133.598 138.986 133.432C139.238 133.118 139.482 132.789 139.712 132.443C139.811 132.29 139.91 132.136 140.006 131.976C140.096 131.835 140.176 131.698 140.256 131.557C140.291 131.493 140.326 131.432 140.362 131.368V131.362C140.413 131.278 140.458 131.192 140.502 131.109C140.576 130.958 140.656 130.811 140.733 130.658C140.822 130.472 140.906 130.29 140.986 130.101C141.059 129.938 141.13 129.771 141.194 129.605C141.238 129.496 141.283 129.387 141.322 129.275C141.386 129.122 141.44 128.968 141.494 128.808C141.59 128.533 141.683 128.254 141.77 127.966C141.85 127.707 141.923 127.438 141.987 127.17C142.032 127.01 142.07 126.85 142.106 126.686C142.125 126.613 142.144 126.533 142.16 126.456C142.224 126.178 142.278 125.899 142.33 125.611C142.358 125.467 142.384 125.323 142.403 125.182C142.429 125.048 142.448 124.914 142.467 124.773C142.493 124.632 142.512 124.488 142.528 124.35C142.547 124.2 142.566 124.053 142.582 123.896C142.656 123.266 142.71 122.606 142.736 121.934C142.752 121.704 142.755 121.477 142.762 121.243C142.768 121 142.771 120.757 142.771 120.507C142.771 104.808 131.68 85.6815 118 77.7807C117.024 77.2175 116.064 76.7247 115.12 76.3087C114.96 76.2351 114.8 76.1679 114.643 76.1039C114.515 76.0431 114.381 75.9887 114.25 75.9407C114.051 75.8575 113.853 75.7807 113.651 75.7103C113.21 75.5407 112.771 75.3871 112.333 75.2559C112.147 75.1951 111.968 75.1407 111.792 75.0959C111.613 75.0415 111.434 74.9903 111.254 74.9519C111.075 74.9007 110.896 74.8623 110.717 74.8239C110.365 74.7407 110.01 74.6735 109.667 74.6191C109.494 74.5839 109.318 74.5583 109.149 74.5391C108.765 74.4783 108.387 74.4431 108.019 74.4143C107.85 74.4047 107.686 74.3983 107.517 74.3887C107.312 74.3791 107.114 74.3727 106.915 74.3727C105.478 74.3727 104.125 74.5711 102.864 74.9583C102.739 74.9967 102.614 75.0383 102.49 75.0831C102.246 75.1663 102.003 75.2559 101.77 75.3583C101.411 75.5087 101.062 75.6783 100.723 75.8607C102.304 74.9007 105.155 73.2047 106.4 72.6575C110.768 70.7311 116.522 71.3551 122.826 74.9903C136.506 82.8911 147.597 102.021 147.597 117.717L147.6 117.723Z" fill="#004C84"/>
<path d="M135.626 132.187C135.088 132.706 134.506 133.16 133.888 133.547C129.805 136.123 124.038 135.867 117.648 132.178C105.27 125.032 95.2384 107.733 95.2384 93.5344C95.2384 86.6544 97.5904 81.7648 101.424 79.3712C102.042 78.9808 102.701 78.6608 103.392 78.4048C100.614 81.0768 98.9664 85.4384 98.9664 91.1888C98.9664 105.387 109.002 122.69 121.37 129.832C126.784 132.958 131.75 133.621 135.626 132.187Z" fill="#004C84"/>
<path d="M141.37 130.19C141.584 129.173 142.579 128.11 143.594 127.822C144.099 127.678 144.512 127.752 144.774 127.992C145.034 128.229 150.227 133.112 150.227 133.112C149.968 132.875 149.555 132.795 149.046 132.942C148.035 133.234 147.04 134.293 146.822 135.31C146.726 135.765 146.8 136.13 147.002 136.376C146.563 135.97 141.885 131.573 141.629 131.342C141.366 131.102 141.261 130.699 141.37 130.19Z" fill="#004C84"/>
<path d="M146.822 135.31C147.037 134.293 148.032 133.23 149.046 132.942C149.552 132.798 149.968 132.875 150.227 133.115C150.49 133.355 150.595 133.755 150.49 134.264C150.275 135.282 149.28 136.344 148.266 136.632C147.712 136.789 147.267 136.683 147.014 136.389C147.011 136.386 147.008 136.382 147.002 136.376C146.8 136.13 146.726 135.765 146.822 135.31Z" fill="white"/>
<path d="M145.379 136.162C145.763 134.344 147.539 132.456 149.344 131.941C150.243 131.685 150.982 131.819 151.45 132.245C151.91 132.671 172.387 151.752 172.387 151.752C171.926 151.327 171.187 151.189 170.285 151.448C168.48 151.967 166.704 153.855 166.32 155.672C166.147 156.482 166.278 157.135 166.64 157.573C165.859 156.847 146.301 138.629 145.846 138.216C145.379 137.787 145.19 137.067 145.382 136.159L145.379 136.162Z" fill="url(#paint12_linear_3474_794)"/>
<path d="M166.32 155.672C166.704 153.854 168.48 151.966 170.285 151.448C171.187 151.192 171.93 151.33 172.387 151.758C172.854 152.187 173.046 152.901 172.854 153.81C172.47 155.627 170.694 157.515 168.89 158.03C167.904 158.312 167.107 158.123 166.659 157.595C166.653 157.589 166.646 157.582 166.637 157.573C166.278 157.134 166.147 156.482 166.317 155.672H166.32Z" fill="url(#paint13_linear_3474_794)"/>
<path d="M166.32 155.672C166.704 153.854 168.48 151.966 170.285 151.448C171.187 151.192 171.93 151.33 172.387 151.758C172.854 152.187 173.046 152.901 172.854 153.81C172.47 155.627 170.694 157.515 168.89 158.03C167.904 158.312 167.107 158.123 166.659 157.595C166.653 157.589 166.646 157.582 166.637 157.573C166.278 157.134 166.147 156.482 166.317 155.672H166.32Z" fill="#004C84"/>
<path d="M145.379 136.162C145.763 134.344 147.539 132.456 149.344 131.941C150.243 131.685 150.982 131.819 151.45 132.245C151.91 132.671 172.387 151.752 172.387 151.752C171.926 151.327 171.187 151.189 170.285 151.448C168.48 151.967 166.704 153.855 166.32 155.672C166.147 156.482 166.278 157.135 166.64 157.573C165.859 156.847 146.301 138.629 145.846 138.216C145.379 137.787 145.19 137.067 145.382 136.159L145.379 136.162Z" fill="#049DDF"/>
<path d="M132.947 115.611L130.189 110.869L132.95 109.294L133.197 109.154L132.95 108.731L131.101 105.544L130.854 105.122L130.608 105.262L127.846 106.837L125.104 102.085L124.858 101.659L124.611 101.797L122.762 102.85L122.518 102.99L122.762 103.413L125.507 108.168L122.762 109.733L122.515 109.874L122.762 110.296L124.611 113.483L124.858 113.906L125.104 113.765L127.85 112.2L130.611 116.946L130.854 117.365L131.101 117.224L132.95 116.171L133.197 116.03L132.95 115.608L132.947 115.611Z" fill="#262626"/>
<path d="M117.622 97.2976V112.142L121.053 114.123V97.5184L117.622 97.2976Z" fill="#262626"/>
<path d="M112.102 103.045C112.045 104.277 111.13 104.757 110.013 104.11C108.896 103.464 107.92 101.829 107.92 100.501C107.92 99.1728 108.858 98.6416 110.013 99.3072C111.168 99.9728 112.045 101.486 112.102 102.786V103.042V103.045ZM112.102 96.9456V97.4672C111.462 96.776 110.755 96.1872 110.013 95.7552C107.146 94.1008 104.822 95.4256 104.822 98.7152C104.822 102.005 107.146 106.011 110.013 107.666C110.755 108.094 111.462 108.322 112.102 108.366V108.952L115.533 110.933V98.9296L112.102 96.9488V96.9456Z" fill="#262626"/>
<path opacity="0.5" d="M120.457 94.8167C122.613 93.5564 122.59 89.5069 120.407 85.7719C118.223 82.0369 114.706 80.0308 112.55 81.291C110.394 82.5513 110.416 86.6008 112.6 90.3358C114.783 94.0708 118.301 96.0769 120.457 94.8167Z" fill="white"/>
<path d="M222.458 142.843C222.314 142.997 222.16 143.141 221.971 143.275C221.395 143.624 220.848 143.842 220.326 144.011C219.68 144.226 219.088 144.379 218.541 144.638C218.909 144.459 220.883 143.499 221.155 143.355C221.558 143.131 221.99 142.987 222.458 142.843Z" fill="url(#paint14_linear_3474_794)"/>
<path d="M223.338 155.954L223.312 161.582L220.474 162.974L220.502 157.346L223.338 155.954Z" fill="url(#paint15_linear_3474_794)"/>
<path d="M223.338 155.954L223.312 161.582L220.474 162.974L220.502 157.346L223.338 155.954Z" fill="#33334C"/>
<path d="M217.197 131.637C217.082 132.014 217.037 132.462 217.043 132.955L214.205 134.347C213.974 132.91 214.672 131.931 215.462 131.627C215.91 131.413 216.512 131.429 217.197 131.637Z" fill="#33334C"/>
<path d="M224.362 148.427C224.272 148.507 224.192 148.597 224.118 148.696C223.328 149.736 223.363 150.6 223.357 152.459L220.518 153.851C220.528 151.992 220.493 151.131 221.283 150.098C221.93 149.227 223.178 149.019 224.362 148.427Z" fill="#33334C"/>
<path d="M230.765 140.869C230.746 143.851 229.542 145.662 227.757 146.725C226.992 147.218 226.15 147.47 225.421 147.784C226.928 146.69 227.907 144.955 227.926 142.261C227.936 140.078 227.29 137.547 226.058 135.246C224.342 131.906 221.622 129.39 218.704 127.685C217.034 126.706 215.338 126.178 213.901 126.258C213.558 126.277 213.235 126.328 212.931 126.421C212.717 126.475 212.518 126.546 212.33 126.635C212.518 126.536 215.357 125.128 215.77 125.019C217.376 124.562 219.488 125.09 221.542 126.293C224.461 127.989 227.181 130.514 228.896 133.845C230.125 136.152 230.771 138.677 230.765 140.866V140.869Z" fill="#33334C"/>
<path d="M229.565 135.256L226.81 136.846C226.592 136.306 226.339 135.771 226.061 135.246C224.346 131.906 221.622 129.394 218.707 127.685C217.037 126.709 215.338 126.178 213.901 126.258C213.562 126.277 213.238 126.331 212.931 126.421C212.726 126.472 212.538 126.539 212.355 126.622C212.694 126.45 215.37 125.125 215.77 125.019C217.376 124.562 219.488 125.09 221.542 126.293C224.461 127.992 227.181 130.514 228.896 133.845C229.142 134.309 229.366 134.779 229.565 135.256Z" fill="#808099"/>
<path d="M218.797 156.347L215.974 154.706L215.949 160.334L220.474 162.974L220.502 157.346L218.797 156.347Z" fill="#4D4D66"/>
<path d="M226.061 135.246C224.346 131.906 221.626 129.391 218.707 127.685C217.037 126.706 215.341 126.178 213.904 126.258C213.562 126.277 213.238 126.328 212.934 126.421C212.72 126.475 212.522 126.546 212.333 126.635C210.787 127.362 209.882 129.25 209.683 131.707L213.84 134.133L214.208 134.347C214.208 134.232 214.208 134.114 214.218 133.998C214.262 132.814 214.675 131.934 215.466 131.627C215.914 131.413 216.515 131.429 217.2 131.637C217.702 131.79 218.243 132.031 218.806 132.363C220.288 133.234 221.734 134.536 222.586 136.296C223.162 137.374 223.357 138.523 223.357 139.726C223.347 141.045 223.142 142.088 222.458 142.843C222.314 142.997 222.16 143.141 221.971 143.275C221.395 143.624 220.848 143.842 220.326 144.011C219.68 144.226 219.088 144.379 218.541 144.638C218.531 144.638 218.522 144.648 218.506 144.658C217.974 144.91 217.501 145.279 217.088 145.925C216.218 147.192 215.955 148.958 215.949 151.186L220.518 153.851C220.528 151.992 220.493 151.131 221.283 150.098C221.93 149.227 223.178 149.019 224.362 148.427C224.55 148.338 224.739 148.229 224.918 148.114C225.088 148.015 225.261 147.899 225.421 147.781C226.928 146.686 227.907 144.952 227.926 142.258C227.936 140.075 227.29 137.544 226.058 135.243L226.061 135.246Z" fill="#4D4D66"/>
<path d="M218.813 153.304L215.974 154.706L218.797 156.347L220.502 157.346L223.338 155.954L218.813 153.304Z" fill="#808099"/>
<path opacity="0.4" d="M212.518 161.474L209.68 162.872L227.926 173.157L230.765 171.765L212.518 161.474Z" fill="url(#paint16_linear_3474_794)"/>
<path opacity="0.4" d="M150.832 166.782L149.811 167.285L144.358 164.398L145.52 163.826L107.619 143.742L102.675 146.181L140.589 166.261L141.674 165.726L147.123 168.613L146.131 169.102L165.158 179.182L169.856 176.862L150.832 166.782Z" fill="url(#paint17_linear_3474_794)"/>
</g>
<defs>
<linearGradient id="paint0_linear_3474_794" x1="145.472" y1="157.573" x2="203.958" y2="157.573" gradientUnits="userSpaceOnUse">
<stop stop-color="#012A56"/>
<stop offset="1" stop-color="#012A56" stop-opacity="0.3"/>
</linearGradient>
<linearGradient id="paint1_linear_3474_794" x1="159.693" y1="53.6992" x2="164.503" y2="62.0297" gradientUnits="userSpaceOnUse">
<stop stop-color="#C3CCEA"/>
<stop offset="0.98" stop-color="#A7AFD1"/>
</linearGradient>
<linearGradient id="paint2_linear_3474_794" x1="130.832" y1="13.801" x2="210.728" y2="152.185" gradientUnits="userSpaceOnUse">
<stop stop-color="#C3CCEA"/>
<stop offset="1" stop-color="#FBFAFF"/>
</linearGradient>
<linearGradient id="paint3_linear_3474_794" x1="176.144" y1="26.4689" x2="177.686" y2="26.4689" gradientUnits="userSpaceOnUse">
<stop stop-color="#FBFAFF" stop-opacity="0"/>
<stop offset="1" stop-color="#FBFAFF"/>
</linearGradient>
<linearGradient id="paint4_linear_3474_794" x1="149.194" y1="119.822" x2="168.394" y2="119.822" gradientUnits="userSpaceOnUse">
<stop stop-color="#012A56"/>
<stop offset="1" stop-color="#012A56" stop-opacity="0.3"/>
</linearGradient>
<linearGradient id="paint5_linear_3474_794" x1="146.685" y1="120.792" x2="165.885" y2="120.792" gradientUnits="userSpaceOnUse">
<stop stop-color="#C3CCEA"/>
<stop offset="0.98" stop-color="#A7AFD1"/>
</linearGradient>
<linearGradient id="paint6_linear_3474_794" x1="149.194" y1="68.2448" x2="168.394" y2="68.2448" gradientUnits="userSpaceOnUse">
<stop stop-color="#012A56"/>
<stop offset="1" stop-color="#012A56" stop-opacity="0.3"/>
</linearGradient>
<linearGradient id="paint7_linear_3474_794" x1="146.685" y1="69.2145" x2="165.885" y2="69.2145" gradientUnits="userSpaceOnUse">
<stop stop-color="#C3CCEA"/>
<stop offset="0.98" stop-color="#A7AFD1"/>
</linearGradient>
<linearGradient id="paint8_linear_3474_794" x1="149.194" y1="94.0688" x2="168.394" y2="94.0688" gradientUnits="userSpaceOnUse">
<stop stop-color="#012A56"/>
<stop offset="1" stop-color="#012A56" stop-opacity="0.3"/>
</linearGradient>
<linearGradient id="paint9_linear_3474_794" x1="146.685" y1="95.0385" x2="165.885" y2="95.0385" gradientUnits="userSpaceOnUse">
<stop stop-color="#C3CCEA"/>
<stop offset="0.98" stop-color="#A7AFD1"/>
</linearGradient>
<linearGradient id="paint10_linear_3474_794" x1="149.194" y1="42.3408" x2="168.394" y2="42.3408" gradientUnits="userSpaceOnUse">
<stop stop-color="#012A56"/>
<stop offset="1" stop-color="#012A56" stop-opacity="0.3"/>
</linearGradient>
<linearGradient id="paint11_linear_3474_794" x1="146.685" y1="43.3105" x2="165.885" y2="43.3105" gradientUnits="userSpaceOnUse">
<stop stop-color="#C3CCEA"/>
<stop offset="0.98" stop-color="#A7AFD1"/>
</linearGradient>
<linearGradient id="paint12_linear_3474_794" x1="161.146" y1="144.157" x2="163.368" y2="141.962" gradientUnits="userSpaceOnUse">
<stop stop-color="#C6C6DF"/>
<stop offset="1" stop-color="#EFEFFF"/>
</linearGradient>
<linearGradient id="paint13_linear_3474_794" x1="166.243" y1="154.741" x2="172.928" y2="154.741" gradientUnits="userSpaceOnUse">
<stop stop-color="#FF5347" stop-opacity="0.6"/>
<stop offset="1" stop-color="#FCD647"/>
</linearGradient>
<linearGradient id="paint14_linear_3474_794" x1="218.544" y1="143.742" x2="222.458" y2="143.742" gradientUnits="userSpaceOnUse">
<stop stop-color="#049DF8"/>
<stop offset="1" stop-color="#012A6F"/>
</linearGradient>
<linearGradient id="paint15_linear_3474_794" x1="217.83" y1="127.678" x2="221.99" y2="160.11" gradientUnits="userSpaceOnUse">
<stop stop-color="#FF5360" stop-opacity="0.6"/>
<stop offset="1" stop-color="#FCD660"/>
</linearGradient>
<linearGradient id="paint16_linear_3474_794" x1="209.68" y1="167.314" x2="230.765" y2="167.314" gradientUnits="userSpaceOnUse">
<stop stop-color="#012A56"/>
<stop offset="1" stop-color="#012A56" stop-opacity="0.3"/>
</linearGradient>
<linearGradient id="paint17_linear_3474_794" x1="102.675" y1="161.461" x2="169.856" y2="161.461" gradientUnits="userSpaceOnUse">
<stop stop-color="#012A56"/>
<stop offset="1" stop-color="#012A56" stop-opacity="0.3"/>
</linearGradient>
<clipPath id="clip0_3474_794">
<rect width="236" height="182" fill="white"/>
</clipPath>
</defs>
</svg>
