<svg width="45" height="50" viewBox="0 0 45 50" fill="none" xmlns="http://www.w3.org/2000/svg">
<path d="M43.3641 18.1351H40.4035V17.8026C40.4035 16.975 39.7302 16.3018 38.9026 16.3018H33.0635C32.661 16.3018 32.3348 16.6279 32.3348 17.0305C32.3348 17.433 32.661 17.7592 33.0635 17.7592H38.9026C38.9266 17.7592 38.9461 17.7786 38.9461 17.8026V26.6877C38.9461 27.0902 39.2723 27.4164 39.6748 27.4164C40.0772 27.4164 40.4035 27.0902 40.4035 26.6877V19.5925H43.3641C43.4626 19.5925 43.5428 19.6727 43.5428 19.7712V45.1942C43.5428 46.8618 42.1861 48.2184 40.5185 48.2184H4.48166C2.81408 48.2184 1.45742 46.8618 1.45742 45.1942V19.7712C1.45742 19.6727 1.53758 19.5925 1.6361 19.5925H4.69386V44.5156C4.69386 45.5432 5.52983 46.3793 6.5575 46.3793H38.5398C39.5674 46.3793 40.4034 45.5433 40.4034 44.5156V29.7958C40.4034 29.3933 40.0771 29.0671 39.6747 29.0671C39.2723 29.0671 38.946 29.3933 38.946 29.7958V40.2825H27.1561C25.6291 40.2825 24.2509 40.9282 23.2774 41.9597V32.5336C23.2774 32.1311 22.9511 31.8049 22.5487 31.8049C22.1462 31.8049 21.82 32.1311 21.82 32.5336V41.9598C20.8464 40.9283 19.4682 40.2826 17.9413 40.2826H14.63C14.2276 40.2826 13.9013 40.6088 13.9013 41.0113C13.9013 41.4138 14.2276 41.74 14.63 41.74H17.9413C19.8421 41.74 21.4268 43.1147 21.7561 44.9218H6.5575C6.33345 44.9218 6.15127 44.7397 6.15127 44.5156V41.74H11.5219C11.9243 41.74 12.2506 41.4138 12.2506 41.0113C12.2506 40.6088 11.9243 40.2826 11.5219 40.2826H6.15127V17.8026C6.15127 17.7786 6.1708 17.7592 6.1948 17.7592H12.0339C12.4363 17.7592 12.7626 17.433 12.7626 17.0305C12.7626 16.6279 12.4363 16.3018 12.0339 16.3018H6.1948C5.36718 16.3018 4.69386 16.9751 4.69386 17.8026V18.1351H1.6361C0.733956 18.1351 0 18.869 0 19.7712V45.1942C0 47.6654 2.01046 49.6758 4.48166 49.6758H40.5183C42.9895 49.6758 45 47.6654 45 45.1942V19.7712C45.0001 18.869 44.2662 18.1351 43.3641 18.1351ZM27.1561 41.7399H38.946V44.5156C38.946 44.7397 38.7638 44.9218 38.5398 44.9218H23.3413C23.6706 43.1146 25.2553 41.7399 27.1561 41.7399Z" fill="black"/>
<path d="M12.8322 10.2244C13.2322 10.2615 13.5883 9.96796 13.6261 9.56727C13.8345 7.35743 14.8549 5.31141 16.4996 3.80619C18.1546 2.29164 20.3025 1.45742 22.5479 1.45742C27.4898 1.45742 31.5103 5.47795 31.5103 10.4198C31.5103 12.2793 30.9459 14.0626 29.8782 15.5772C29.8722 15.5857 29.8664 15.5945 29.8606 15.6032L25.1975 22.8629C25.122 22.9805 25.0819 23.1171 25.0819 23.2568V24.2008C25.0819 24.3924 24.926 24.5483 24.7344 24.5483H24.6868L25.151 16.6709H25.9812C27.1691 16.6709 28.1354 15.7045 28.1354 14.5168V14.4283C28.1354 13.2405 27.1691 12.2742 25.9812 12.2742C24.8424 12.2742 23.8978 13.1648 23.8307 14.3016L23.777 15.2135H21.2215L21.1678 14.3016C21.1009 13.1648 20.1562 12.2742 19.0173 12.2742C17.8295 12.2742 16.8631 13.2405 16.8631 14.4283V14.5168C16.8631 15.7045 17.8295 16.6709 19.0173 16.6709H19.8475L20.3114 24.5432C20.1436 24.5187 20.0139 24.3753 20.0139 24.2008V23.2568C20.0139 23.1171 19.9738 22.9805 19.8984 22.8629L15.2352 15.6032C15.2295 15.5945 15.2237 15.5857 15.2177 15.5772C14.5472 14.626 14.075 13.5689 13.8145 12.4354C13.7242 12.0431 13.3326 11.7984 12.941 11.8884C12.5487 11.9787 12.3039 12.3697 12.3941 12.7619C12.696 14.0754 13.2422 15.3006 14.0173 16.4037L18.5567 23.4704V24.2006C18.5567 24.9364 18.9999 25.5698 19.6329 25.8505V27.0828C19.6329 28.3795 20.6877 29.4344 21.9845 29.4344H23.1119C24.4085 29.4344 25.4635 28.3795 25.4635 27.0828V25.8505C26.0964 25.5698 26.5397 24.9365 26.5397 24.2006V23.4704L31.0789 16.4037C32.3148 14.645 32.968 12.5761 32.968 10.4197C32.9677 4.67423 28.2933 0 22.5479 0C19.9374 0 17.4399 0.96996 15.5157 2.7311C13.6038 4.48098 12.4175 6.86006 12.1752 9.43046C12.1373 9.83125 12.4315 10.1867 12.8322 10.2244ZM25.2856 14.3873C25.3073 14.0196 25.6128 13.7315 25.9812 13.7315C26.3655 13.7315 26.678 14.0441 26.678 14.4282V14.5167C26.678 14.9008 26.3655 15.2134 25.9812 15.2134H25.2369L25.2856 14.3873ZM19.0173 15.2134C18.6331 15.2134 18.3205 14.9008 18.3205 14.5167V14.4282C18.3205 14.0441 18.6331 13.7315 19.0173 13.7315C19.3858 13.7315 19.6913 14.0196 19.7129 14.3873L19.7616 15.2134H19.0173ZM23.6911 16.6708L23.227 24.5482H21.7717L21.3075 16.6708H23.6911ZM24.0057 27.0829C24.0057 27.5759 23.6046 27.9771 23.1115 27.9771H21.9841C21.4911 27.9771 21.0899 27.5759 21.0899 27.0829V26.0056H24.0056V27.0829H24.0057Z" fill="black"/>
<path d="M35.3149 5.53306C35.4856 5.53306 35.657 5.4734 35.7954 5.35195L37.3853 3.95594C37.6878 3.69049 37.7176 3.22995 37.4522 2.92758C37.1867 2.62522 36.7263 2.59529 36.4238 2.86074L34.8339 4.25675C34.5314 4.52219 34.5016 4.98274 34.767 5.2851C34.9111 5.44921 35.1125 5.53306 35.3149 5.53306Z" fill="black"/>
<path d="M34.8338 9.92871L36.4238 11.3248C36.5621 11.4464 36.7335 11.5059 36.9043 11.5059C37.1067 11.5059 37.3081 11.4221 37.4522 11.258C37.7178 10.9556 37.6878 10.4952 37.3855 10.2296L35.7955 8.83351C35.4931 8.56787 35.0327 8.59789 34.7672 8.90035C34.5015 9.20272 34.5314 9.66307 34.8338 9.92871Z" fill="black"/>
<path d="M7.71672 3.95605L9.30666 5.35206C9.44502 5.47361 9.61641 5.53317 9.78713 5.53317C9.98951 5.53317 10.1909 5.44932 10.335 5.28521C10.6006 4.98285 10.5706 4.5223 10.2682 4.25686L8.67823 2.86085C8.37586 2.59521 7.91532 2.62523 7.64987 2.9277C7.38433 3.23006 7.41426 3.69051 7.71672 3.95605Z" fill="black"/>
<path d="M8.19768 11.5058C8.36839 11.5058 8.53978 11.4462 8.67823 11.3247L10.2682 9.92859C10.5705 9.66305 10.6005 9.20261 10.3349 8.90024C10.0695 8.59787 9.60904 8.56795 9.30658 8.83339L7.71663 10.2295C7.41427 10.495 7.38434 10.9555 7.64988 11.2579C7.79387 11.422 7.99519 11.5058 8.19768 11.5058Z" fill="black"/>
<path d="M16.1043 25.2766C16.1043 24.874 15.7781 24.5479 15.3756 24.5479H8.19746C7.79502 24.5479 7.46875 24.874 7.46875 25.2766C7.46875 25.6791 7.79502 26.0053 8.19746 26.0053H15.3756C15.7781 26.0053 16.1043 25.6791 16.1043 25.2766Z" fill="black"/>
<path d="M17.5917 28.2549H9.50996C9.10752 28.2549 8.78125 28.5811 8.78125 28.9836C8.78125 29.3861 9.10752 29.7123 9.50996 29.7123H17.5917C17.9942 29.7123 18.3204 29.3861 18.3204 28.9836C18.3204 28.5811 17.9942 28.2549 17.5917 28.2549Z" fill="black"/>
<path d="M17.5917 31.8057H9.50996C9.10752 31.8057 8.78125 32.1318 8.78125 32.5344C8.78125 32.9369 9.10752 33.2631 9.50996 33.2631H17.5917C17.9942 33.2631 18.3204 32.9369 18.3204 32.5344C18.3204 32.1318 17.9942 31.8057 17.5917 31.8057Z" fill="black"/>
<path d="M17.5917 35.3555H9.50996C9.10752 35.3555 8.78125 35.6816 8.78125 36.0842C8.78125 36.4867 9.10752 36.8129 9.50996 36.8129H17.5917C17.9942 36.8129 18.3204 36.4867 18.3204 36.0842C18.3204 35.6816 17.9942 35.3555 17.5917 35.3555Z" fill="black"/>
<path d="M37.6278 25.2766C37.6278 24.874 37.3015 24.5479 36.8991 24.5479H29.7209C29.3185 24.5479 28.9922 24.874 28.9922 25.2766C28.9922 25.6791 29.3185 26.0053 29.7209 26.0053H36.8991C37.3015 26.0053 37.6278 25.6791 37.6278 25.2766Z" fill="black"/>
<path d="M35.5839 28.2549H27.5021C27.0997 28.2549 26.7734 28.5811 26.7734 28.9836C26.7734 29.3861 27.0997 29.7123 27.5021 29.7123H35.5839C35.9864 29.7123 36.3126 29.3861 36.3126 28.9836C36.3126 28.5811 35.9864 28.2549 35.5839 28.2549Z" fill="black"/>
<path d="M35.5839 31.8057H27.5021C27.0997 31.8057 26.7734 32.1318 26.7734 32.5344C26.7734 32.9369 27.0997 33.2631 27.5021 33.2631H35.5839C35.9864 33.2631 36.3126 32.9369 36.3126 32.5344C36.3126 32.1318 35.9864 31.8057 35.5839 31.8057Z" fill="black"/>
<path d="M35.5839 35.3555H27.5021C27.0997 35.3555 26.7734 35.6816 26.7734 36.0842C26.7734 36.4867 27.0997 36.8129 27.5021 36.8129H35.5839C35.9864 36.8129 36.3126 36.4867 36.3126 36.0842C36.3126 35.6816 35.9864 35.3555 35.5839 35.3555Z" fill="black"/>
</svg>
