<svg width="45" height="51" viewBox="0 0 45 51" fill="none" xmlns="http://www.w3.org/2000/svg">
<path d="M38.9527 18.8799H27.5485C27.1416 18.8799 26.8119 19.2097 26.8119 19.6164C26.8119 20.0232 27.1416 20.353 27.5485 20.353H38.9527C39.3596 20.353 39.6892 20.0232 39.6892 19.6164C39.6892 19.2097 39.3596 18.8799 38.9527 18.8799ZM27.5485 24.0933H33.0048C33.4116 24.0933 33.7413 23.7635 33.7413 23.3568C33.7413 22.95 33.4116 22.6202 33.0048 22.6202H27.5485C27.1416 22.6202 26.8119 22.95 26.8119 23.3568C26.8119 23.7635 27.1417 24.0933 27.5485 24.0933ZM27.5485 37.7531C27.1416 37.7531 26.8119 38.0829 26.8119 38.4896C26.8119 38.8964 27.1416 39.2262 27.5485 39.2262H33.0048C33.4116 39.2262 33.7413 38.8964 33.7413 38.4896C33.7413 38.0829 33.4116 37.7531 33.0048 37.7531H27.5485ZM39.6892 34.7493C39.6892 34.3425 39.3596 34.0128 38.9527 34.0128H27.5485C27.1416 34.0128 26.8119 34.3425 26.8119 34.7493C26.8119 35.1561 27.1416 35.4859 27.5485 35.4859H38.9527C39.3596 35.4859 39.6892 35.1561 39.6892 34.7493ZM44.2634 16.2561C43.8566 16.2561 43.5269 16.5859 43.5269 16.9926V33.9536C43.0029 36.4447 41.0708 38.0372 37.7816 38.6864C35.5607 39.1247 33.8426 40.8429 33.4043 43.0637C32.755 46.353 31.1626 48.285 28.6716 48.8091H19.3675C18.9606 48.8091 18.6309 49.1389 18.6309 49.5456C18.6309 49.9524 18.9606 50.2822 19.3675 50.2822H31.7277C39.0461 50.2822 44.9999 44.3283 44.9999 37.0098V16.9926C45 16.5859 44.6703 16.2561 44.2634 16.2561ZM31.9824 48.8064C33.3985 47.6095 34.3717 45.7699 34.8496 43.3489C35.1716 41.7166 36.4345 40.4539 38.0669 40.1317C40.4876 39.6539 42.3274 38.6804 43.5242 37.2646C43.3903 43.5692 38.287 48.6724 31.9824 48.8064ZM19.6829 19.3722L17.0168 22.0384L15.944 20.9657C15.6564 20.678 15.19 20.6781 14.9024 20.9657C14.6147 21.2534 14.6147 21.7197 14.9024 22.0073L16.4961 23.6008C16.7836 23.8885 17.25 23.8885 17.5377 23.6008L20.7247 20.4138C21.0124 20.1261 21.0124 19.6597 20.7247 19.3722C20.437 19.0846 19.9707 19.0846 19.6829 19.3722ZM11.5652 39.3334C11.5652 41.2823 13.1508 42.8678 15.0996 42.8678H20.5275C22.4763 42.8678 24.0618 41.2823 24.0618 39.3334V33.9055C24.0618 31.9567 22.4763 30.3711 20.5275 30.3711H15.0996C13.1507 30.3711 11.5652 31.9567 11.5652 33.9055V39.3334ZM13.0383 33.9056C13.0383 32.7691 13.963 31.8443 15.0996 31.8443H20.5275C21.6641 31.8443 22.5887 32.769 22.5887 33.9056V39.3335C22.5887 40.4701 21.6641 41.3948 20.5275 41.3948H15.0996C13.963 41.3948 13.0383 40.4702 13.0383 39.3335V33.9056ZM29.7618 10.5642H21.4927C21.0858 10.5642 20.7561 10.8939 20.7561 11.3007C20.7561 11.7075 21.0858 12.0373 21.4927 12.0373H29.7618C30.1687 12.0373 30.4984 11.7075 30.4984 11.3007C30.4984 10.8939 30.1687 10.5642 29.7618 10.5642ZM39.4748 4.97921C39.1183 2.17539 36.7194 0 33.8203 0H5.70192C2.55781 0 0 2.55791 0 5.70202V40.5161C0 43.6603 2.55791 46.2182 5.70202 46.2182H6.47059C7.14027 48.5614 9.29975 50.2822 11.855 50.2822H15.9001C16.3069 50.2822 16.6366 49.9524 16.6366 49.5456C16.6366 49.1389 16.3069 48.8091 15.9001 48.8091H11.855C9.57905 48.8091 7.72755 46.9575 7.72755 44.6815V10.578C7.72755 8.30206 9.57915 6.45046 11.855 6.45046H39.3994C41.6754 6.45046 43.5269 8.30206 43.5269 10.578V13.4186C43.5269 13.8253 43.8566 14.1551 44.2634 14.1551C44.6703 14.1551 45 13.8253 45 13.4186V10.578C45 7.51503 42.5282 5.01987 39.4748 4.97921ZM11.855 4.97735C8.76688 4.97735 6.25444 7.48979 6.25444 10.578V44.6815C6.25444 44.7028 6.25581 44.7238 6.25601 44.7451H5.70192C3.37018 44.7451 1.47301 42.848 1.47301 40.5161V5.70202C1.47311 3.37018 3.37018 1.47311 5.70192 1.47311H33.8202C35.9048 1.47311 37.6407 2.98973 37.9856 4.97735H11.855ZM16.496 38.7339C16.7835 39.0215 17.2499 39.0215 17.5376 38.7339L20.7246 35.5469C21.0123 35.2592 21.0123 34.7928 20.7246 34.5053C20.4369 34.2176 19.9706 34.2176 19.6829 34.5053L17.0168 37.1715L15.944 36.0988C15.6564 35.811 15.19 35.8111 14.9024 36.0988C14.6147 36.3864 14.6147 36.8528 14.9024 37.1404L16.496 38.7339ZM15.0996 15.2383C13.1507 15.2383 11.5652 16.8238 11.5652 18.7726V24.2006C11.5652 26.1494 13.1508 27.7349 15.0996 27.7349H20.5275C22.4763 27.7349 24.0618 26.1494 24.0618 24.2006V18.7726C24.0618 16.8238 22.4763 15.2383 20.5275 15.2383H15.0996ZM22.5887 18.7726V24.2006C22.5887 25.3371 21.6641 26.2618 20.5275 26.2618H15.0996C13.963 26.2618 13.0383 25.3372 13.0383 24.2006V18.7726C13.0383 17.6361 13.963 16.7115 15.0996 16.7115H20.5275C21.6641 16.7115 22.5887 17.6361 22.5887 18.7726Z" fill="#262626"/>
</svg>
