<svg width="48" height="48" viewBox="0 0 48 48" fill="none" xmlns="http://www.w3.org/2000/svg">
<g clip-path="url(#clip0_3474_618)">
<mask id="mask0_3474_618" style="mask-type:alpha" maskUnits="userSpaceOnUse" x="0" y="0" width="48" height="48">
<rect width="48" height="48" fill="#D9D9D9"/>
</mask>
<g mask="url(#mask0_3474_618)">
<path d="M43.7986 20.4576C43.8304 23.3951 41.9121 26.3327 38.0435 28.5671C30.3383 33.0187 17.8016 32.9942 10.0449 28.5181C6.19596 26.2959 4.24576 23.3927 4.20166 20.4894C4.20166 20.3277 4.21146 14.6829 4.21636 12.5024C4.21636 12.5857 4.22616 12.6715 4.23596 12.7572C4.24086 12.8381 4.25311 12.9189 4.26291 12.9998C4.26291 13.0194 4.27026 13.039 4.27271 13.0586C4.28006 13.1272 4.28986 13.1958 4.30456 13.2644C4.32171 13.3624 4.34131 13.4628 4.36336 13.5633C4.38051 13.6441 4.39766 13.7225 4.41971 13.8058C4.46626 13.9798 4.51771 14.1537 4.57406 14.3277C4.60346 14.4134 4.63531 14.5016 4.66961 14.5874C4.93176 15.2758 5.30661 15.9545 5.79171 16.6135C5.84316 16.687 5.89951 16.7581 5.95586 16.8291C6.03671 16.932 6.11511 17.0325 6.20086 17.1305C6.25721 17.2015 6.31846 17.275 6.38461 17.3436C6.45321 17.4245 6.52671 17.5029 6.60266 17.5837C6.67616 17.6646 6.75211 17.743 6.83051 17.8214C6.90891 17.8998 6.98976 17.9806 7.07306 18.0566C7.14166 18.1252 7.21271 18.1913 7.28376 18.255C7.39156 18.353 7.49691 18.4486 7.61206 18.5441C7.69291 18.6127 7.77131 18.6813 7.85461 18.745C7.94526 18.8234 8.03836 18.8945 8.13391 18.968C8.32501 19.115 8.52346 19.262 8.72926 19.4065C8.83216 19.48 8.93506 19.5511 9.04041 19.6197C9.35646 19.8328 9.69211 20.0386 10.04 20.242C17.7967 24.7206 30.3334 24.7426 38.0386 20.291C42.0836 17.9561 43.9946 14.8544 43.7765 11.7821C43.7839 11.7429 43.7912 11.7037 43.7937 11.667C43.8108 13.7789 43.7741 18.5907 43.7937 20.4625L43.7986 20.4576Z" fill="#07F184"/>
<path d="M43.7986 28.6849C43.8304 31.6224 41.9121 34.56 38.0435 36.7944C30.3383 41.246 17.8016 41.2215 10.0449 36.7454C6.19596 34.5232 4.24576 31.62 4.20166 28.7167C4.20166 28.555 4.21146 22.9102 4.21636 20.7297C4.21636 20.813 4.22616 20.8988 4.23596 20.9845C4.24086 21.0654 4.25311 21.1462 4.26291 21.2271C4.26291 21.2467 4.27026 21.2663 4.27271 21.2859C4.28006 21.3545 4.28986 21.4231 4.30456 21.4917C4.32171 21.5897 4.34131 21.6901 4.36336 21.7906C4.38051 21.8714 4.39766 21.9498 4.41971 22.0331C4.46626 22.2071 4.51771 22.381 4.57406 22.555C4.60346 22.6407 4.63531 22.7289 4.66961 22.8147C4.93176 23.5031 5.30661 24.1818 5.79171 24.8408C5.84316 24.9143 5.89951 24.9854 5.95586 25.0564C6.03671 25.1593 6.11511 25.2598 6.20086 25.3578C6.25721 25.4288 6.31846 25.5023 6.38461 25.5709C6.45321 25.6518 6.52671 25.7302 6.60266 25.811C6.67616 25.8919 6.75211 25.9703 6.83051 26.0487C6.90891 26.1271 6.98976 26.2079 7.07306 26.2839C7.14166 26.3525 7.21271 26.4186 7.28376 26.4823C7.39156 26.5803 7.49691 26.6759 7.61206 26.7714C7.69291 26.84 7.77131 26.9086 7.85461 26.9723C7.94526 27.0507 8.03836 27.1218 8.13391 27.1953C8.32501 27.3423 8.52346 27.4893 8.72926 27.6338C8.83216 27.7073 8.93506 27.7784 9.04041 27.847C9.35646 28.0601 9.69211 28.2659 10.04 28.4693C17.7967 32.9479 30.3334 32.9699 38.0386 28.5183C42.0836 26.1834 43.9946 23.0817 43.7765 20.0094C43.7839 19.9702 43.7912 19.931 43.7937 19.8943C43.8108 22.0062 43.7741 26.818 43.7937 28.6898L43.7986 28.6849Z" fill="#28DCF3"/>
<path d="M43.7986 36.9119C43.8304 39.8495 41.9121 42.787 38.0435 45.0214C30.3383 49.4731 17.8016 49.4486 10.0449 44.9724C6.19596 42.7503 4.24576 39.847 4.20166 36.9438C4.20166 36.7821 4.21146 31.1373 4.21636 28.9568C4.21636 29.0401 4.22616 29.1258 4.23596 29.2116C4.24086 29.2924 4.25311 29.3733 4.26291 29.4541C4.26291 29.4737 4.27026 29.4933 4.27271 29.5129C4.28006 29.5815 4.28986 29.6501 4.30456 29.7187C4.32171 29.8167 4.34131 29.9172 4.36336 30.0176C4.38051 30.0985 4.39766 30.1769 4.41971 30.2602C4.46626 30.4341 4.51771 30.6081 4.57406 30.782C4.60346 30.8678 4.63531 30.956 4.66961 31.0417C4.93176 31.7302 5.30661 32.4088 5.79171 33.0679C5.84316 33.1414 5.89951 33.2124 5.95586 33.2835C6.03671 33.3864 6.11511 33.4868 6.20086 33.5848C6.25721 33.6559 6.31846 33.7294 6.38461 33.798C6.45321 33.8788 6.52671 33.9572 6.60266 34.0381C6.67616 34.1189 6.75211 34.1973 6.83051 34.2757C6.90891 34.3541 6.98976 34.435 7.07306 34.5109C7.14166 34.5795 7.21271 34.6457 7.28376 34.7094C7.39156 34.8074 7.49691 34.9029 7.61206 34.9985C7.69291 35.0671 7.77131 35.1357 7.85461 35.1994C7.94526 35.2778 8.03836 35.3488 8.13391 35.4223C8.32501 35.5693 8.52346 35.7163 8.72926 35.8609C8.83216 35.9344 8.93506 36.0054 9.04041 36.074C9.35646 36.2872 9.69211 36.493 10.04 36.6963C17.7967 41.1749 30.3334 41.197 38.0386 36.7453C42.0836 34.4105 43.9946 31.3088 43.7765 28.2365C43.7839 28.1973 43.7912 28.1581 43.7937 28.1213C43.8108 30.2332 43.7741 35.045 43.7937 36.9168L43.7986 36.9119Z" fill="#049DDF"/>
<path d="M43.803 12.2866C43.8371 5.97318 34.9998 0.807144 24.0642 0.747977C13.1286 0.688809 4.2359 5.75892 4.20174 12.0724C4.16758 18.3858 13.0049 23.5519 23.9405 23.611C34.8761 23.6702 43.7688 18.6001 43.803 12.2866Z" fill="#28DCF3"/>
<path d="M31.8424 22.7067C29.4586 23.2947 26.8273 23.6157 24.0637 23.6108C23.4928 23.6108 22.922 23.5936 22.3609 23.5642C15.3123 23.2041 9.30486 20.7173 6.28646 17.2236C4.96346 15.6924 4.21376 13.9676 4.20396 12.1448C4.16966 5.83113 13.0044 0.727777 23.9412 0.749827L24.0024 12.1815L31.8424 22.7067Z" fill="#7161DA"/>
<path d="M43.8033 12.216C43.8107 13.5856 43.4015 14.8963 42.642 16.1115L24.0024 12.1793L23.9412 0.747559C34.8755 0.767159 43.769 5.90236 43.8033 12.216Z" fill="#FCD647"/>
</g>
</g>
<defs>
<clipPath id="clip0_3474_618">
<rect width="48" height="48" fill="white"/>
</clipPath>
</defs>
</svg>
