<svg width="236" height="182" viewBox="0 0 236 182" fill="none" xmlns="http://www.w3.org/2000/svg">
<g clip-path="url(#clip0_3474_794)">
<path opacity="0.4" d="M106.416 141.534L101.472 143.973L155.014 173.614L159.958 171.189L106.416 141.534Z" fill="url(#paint0_linear_3474_794)"/>
<path d="M100.381 5.93442L101.27 114.878C101.27 122.219 105.734 130.75 111.242 133.928L152.739 160.088C152.739 160.088 156.109 158.469 157.891 157.272C159.834 155.966 161.05 153.218 161.05 149.387L161.027 46.0624C161.027 38.7216 156.563 30.1904 151.056 27.0128L111.219 4.01442C108.992 2.72802 106.934 2.51362 105.277 3.20162C102.832 4.21282 100.384 5.93122 100.384 5.93122L100.381 5.93442Z" fill="url(#paint1_linear_3474_794)"/>
<path d="M96.88 14.0752L96.9024 117.4C96.9024 124.741 101.366 133.272 106.874 136.45L146.71 159.448C152.218 162.629 156.682 159.253 156.682 151.909L156.659 48.584C156.659 41.2432 152.195 32.712 146.688 29.5344L106.851 6.53604C101.344 3.35524 96.88 6.73124 96.88 14.0752Z" fill="url(#paint2_linear_3474_794)"/>
<path d="M146.685 30.3537L106.848 7.35529C101.734 4.40489 97.5905 7.53769 97.5905 14.3537L97.6129 117.944C97.6129 124.76 101.757 132.68 106.87 135.634L146.707 158.632C151.821 161.582 155.965 158.45 155.965 151.634L155.942 48.0433C155.942 41.2273 151.798 33.3073 146.685 30.3537Z" fill="#012A56"/>
<path d="M153.114 44.6864V74.616V76.8912V102.661V104.933V109.054V111.33V114.568V116.84L153.091 151.688C153.091 155.742 150.218 157.381 146.685 155.339L127.315 144.155L122.592 141.429L106.851 132.338C106.749 132.28 106.643 132.216 106.541 132.152C105.994 131.803 105.462 131.39 104.957 130.917C102.346 128.482 100.445 124.587 100.445 121.285L100.467 14.28C100.467 10.2288 103.341 8.59041 106.874 10.6288L112.112 13.6528V15.1408C112.112 17.2816 113.622 19.8864 115.482 20.9616L118.528 22.7184L120.512 23.864L138.694 34.3632C140.554 35.4384 142.067 34.5744 142.067 32.4368V30.9456L146.714 33.6304C150.243 35.6688 153.12 40.6256 153.117 44.6768L153.114 44.6864Z" fill="#F0F0FF"/>
<path d="M158.051 65.9664L159.302 65.2432C159.398 65.1888 159.485 65.1792 159.558 65.208C159.667 65.2496 160.253 65.6112 160.253 65.6112L159.734 75.368C159.734 75.688 159.539 76.056 159.302 76.1936L158.403 77.304C158.403 77.304 157.824 76.984 157.744 76.9232C157.664 76.8624 157.616 76.7472 157.616 76.5872V66.7888C157.616 66.4688 157.811 66.1008 158.048 65.9632L158.051 65.9664Z" fill="#666666"/>
<path d="M158.694 66.3376L159.946 65.6144C160.186 65.4768 160.378 65.624 160.378 65.9408V75.7392C160.378 76.0592 160.182 76.4272 159.946 76.5648L158.694 77.288C158.454 77.4256 158.262 77.2784 158.262 76.9616V67.1632C158.262 66.8432 158.458 66.4752 158.694 66.3376Z" fill="#F2F2F2"/>
<path d="M156.701 59.6911L161.123 57.1343V55.1279L156.701 57.6815V59.6911Z" fill="#E6E6E6"/>
<g style="mix-blend-mode:screen">
<path d="M156.682 151.099L156.861 109.81L156.88 67.6848L156.886 57.1536V51.8896L156.89 49.256V48.5968L156.864 47.9344L156.838 47.272C156.822 47.0512 156.794 46.8336 156.771 46.6128C156.406 43.0992 155.238 39.6944 153.494 36.632C152.621 35.1024 151.59 33.656 150.39 32.36L149.936 31.8768C149.786 31.7136 149.613 31.5728 149.456 31.4224L148.966 30.9744C148.803 30.824 148.621 30.6992 148.448 30.5616L147.923 30.1552C147.744 30.0272 147.552 29.9152 147.366 29.7936C147.181 29.6752 146.995 29.5536 146.806 29.4384L146.237 29.1088C134.061 22.1136 121.904 15.0864 109.702 8.13916C121.821 15.2336 133.984 22.248 146.128 29.2944L146.698 29.624C146.883 29.7392 147.062 29.8608 147.248 29.976C147.43 30.0944 147.616 30.2096 147.792 30.3344L148.307 30.7376C148.477 30.8752 148.656 31 148.816 31.1472L149.296 31.592C149.453 31.7424 149.622 31.88 149.77 32.0432L150.218 32.52C151.402 33.8032 152.413 35.24 153.28 36.7536C155.011 39.784 156.176 43.1632 156.541 46.6352C156.563 46.8528 156.592 47.0704 156.608 47.2848L156.634 47.9376L156.659 48.5904V49.2496L156.662 51.8832L156.669 57.1472L156.678 67.6784L156.717 109.803L156.678 151.093L156.682 151.099Z" fill="white"/>
</g>
<path d="M129.978 25.2784C130 25.2048 130.01 25.1248 130.01 25.032C130.01 24.7888 129.93 24.5232 129.798 24.2992C129.693 24.1136 129.552 23.96 129.402 23.8704L118.877 17.7936C118.838 17.7712 118.8 17.7552 118.765 17.7424C118.483 17.6464 118.269 17.8544 118.269 18.2544C118.269 18.5008 118.352 18.7664 118.48 18.9872C118.586 19.1728 118.726 19.3264 118.877 19.416L129.402 25.4928C129.664 25.6464 129.888 25.5472 129.974 25.2784H129.978Z" fill="#012A56"/>
<path d="M129.978 25.2784C130 25.2048 130.01 25.1248 130.01 25.032C130.01 24.7888 129.93 24.5232 129.798 24.2992C129.693 24.1136 129.552 23.96 129.402 23.8704L118.877 17.7936C118.838 17.7712 118.8 17.7552 118.765 17.7424C118.742 17.8128 118.733 17.896 118.733 17.9856C118.733 18.232 118.816 18.4976 118.944 18.7184C119.05 18.904 119.19 19.0576 119.341 19.1472L129.862 25.224C129.901 25.2464 129.939 25.2624 129.974 25.2752L129.978 25.2784Z" fill="#049DDF"/>
<path d="M134.096 27.3905C134.096 28.0113 133.661 28.2641 133.12 27.9537C132.845 27.7937 132.592 27.5185 132.419 27.1953C132.246 26.8977 132.144 26.5649 132.144 26.2641C132.144 25.6433 132.579 25.4033 133.12 25.7137C133.27 25.7937 133.408 25.9217 133.533 26.0593C133.866 26.4273 134.096 26.9425 134.096 27.3937V27.3905Z" fill="#000019"/>
<path d="M133.55 27.5625C133.782 27.427 133.779 26.9905 133.544 26.5877C133.309 26.1849 132.93 25.9683 132.698 26.1039C132.466 26.2395 132.469 26.6759 132.704 27.0787C132.94 27.4815 133.319 27.6981 133.55 27.5625Z" fill="#111433"/>
<path d="M133.463 27.4134C133.648 27.3054 133.646 26.9582 133.458 26.6378C133.271 26.3174 132.97 26.1451 132.785 26.2531C132.6 26.361 132.603 26.7082 132.79 27.0286C132.977 27.349 133.279 27.5213 133.463 27.4134Z" fill="#049DDF"/>
<path d="M133.424 27.3471C133.588 27.2516 133.586 26.9442 133.42 26.6604C133.254 26.3766 132.987 26.2239 132.824 26.3194C132.66 26.4148 132.663 26.7222 132.828 27.006C132.994 27.2898 133.261 27.4425 133.424 27.3471Z" fill="#28DCF3"/>
<path d="M133.29 27.1176C133.38 27.065 133.379 26.8949 133.287 26.7378C133.195 26.5806 133.048 26.4959 132.958 26.5485C132.868 26.6011 132.869 26.7712 132.961 26.9283C133.053 27.0855 133.2 27.1702 133.29 27.1176Z" fill="#092736"/>
<path d="M133.25 27.0487C133.319 27.0086 133.318 26.8796 133.248 26.7606C133.179 26.6416 133.067 26.5776 132.998 26.6178C132.929 26.6579 132.93 26.7869 133 26.9059C133.069 27.0249 133.181 27.0889 133.25 27.0487Z" fill="#000019"/>
<path d="M133.291 26.6284C133.321 26.5936 133.272 26.5018 133.181 26.4234C133.09 26.3449 132.991 26.3096 132.961 26.3444C132.931 26.3792 132.981 26.471 133.072 26.5495C133.163 26.6279 133.261 26.6632 133.291 26.6284Z" fill="white"/>
<path d="M133.294 27.4328C133.324 27.398 133.275 27.3062 133.184 27.2278C133.093 27.1494 132.994 27.114 132.964 27.1489C132.934 27.1837 132.984 27.2755 133.075 27.3539C133.166 27.4323 133.264 27.4677 133.294 27.4328Z" fill="white"/>
<path opacity="0.3" d="M133.683 26.5521C133.718 27.1153 133.302 27.4609 132.765 27.3329C132.64 27.3105 132.525 27.2625 132.419 27.1953C132.246 26.8977 132.144 26.5649 132.144 26.2641C132.144 25.6433 132.579 25.4033 133.12 25.7137C133.27 25.7937 133.408 25.9217 133.533 26.0593C133.613 26.2097 133.67 26.3825 133.683 26.5521Z" fill="url(#paint3_linear_3474_794)"/>
<path opacity="0.5" d="M122.851 113.458L106.736 104.152C105.885 103.659 105.194 104.181 105.194 105.317V123.237C105.194 124.373 105.885 125.691 106.736 126.184L122.851 135.49C123.702 135.982 124.394 135.461 124.394 134.325V116.405C124.394 115.269 123.702 113.95 122.851 113.458Z" fill="url(#paint4_linear_3474_794)"/>
<path d="M120.342 114.427L104.227 105.122C103.376 104.629 102.685 105.15 102.685 106.286V124.206C102.685 125.342 103.376 126.661 104.227 127.154L120.342 136.459C121.194 136.952 121.885 136.43 121.885 135.294V117.374C121.885 116.238 121.194 114.92 120.342 114.427Z" fill="url(#paint5_linear_3474_794)"/>
<path d="M119.904 114.738L103.789 105.432C102.938 104.939 102.246 105.461 102.246 106.597V124.517C102.246 125.653 102.938 126.971 103.789 127.464L119.904 136.77C120.755 137.262 121.446 136.741 121.446 135.605V117.685C121.446 116.549 120.755 115.23 119.904 114.738Z" fill="white"/>
<path opacity="0.5" d="M122.851 61.88L106.736 52.5744C105.885 52.0816 105.194 52.6032 105.194 53.7392V71.6592C105.194 72.7952 105.885 74.1136 106.736 74.6064L122.851 83.912C123.702 84.4048 124.394 83.8832 124.394 82.7472V64.8272C124.394 63.6912 123.702 62.3728 122.851 61.88Z" fill="url(#paint6_linear_3474_794)"/>
<path d="M120.342 62.8497L104.227 53.5441C103.376 53.0513 102.685 53.5729 102.685 54.7089V72.6289C102.685 73.7649 103.376 75.0833 104.227 75.5761L120.342 84.8817C121.194 85.3745 121.885 84.8529 121.885 83.7169V65.7969C121.885 64.6609 121.194 63.3425 120.342 62.8497Z" fill="url(#paint7_linear_3474_794)"/>
<path d="M119.904 63.16L103.789 53.8544C102.938 53.3616 102.246 53.8832 102.246 55.0192V72.9392C102.246 74.0752 102.938 75.3936 103.789 75.8864L119.904 85.192C120.755 85.6848 121.446 85.1632 121.446 84.0272V66.1072C121.446 64.9712 120.755 63.6528 119.904 63.16Z" fill="white"/>
<path opacity="0.5" d="M122.851 87.704L106.736 78.3984C105.885 77.9056 105.194 78.4272 105.194 79.5632V97.4832C105.194 98.6192 105.885 99.9376 106.736 100.43L122.851 109.736C123.702 110.229 124.394 109.707 124.394 108.571V90.6512C124.394 89.5152 123.702 88.1968 122.851 87.704Z" fill="url(#paint8_linear_3474_794)"/>
<path d="M120.342 88.6737L104.227 79.3681C103.376 78.8753 102.685 79.3969 102.685 80.5329V98.4529C102.685 99.5889 103.376 100.907 104.227 101.4L120.342 110.706C121.194 111.199 121.885 110.677 121.885 109.541V91.6209C121.885 90.4849 121.194 89.1665 120.342 88.6737Z" fill="url(#paint9_linear_3474_794)"/>
<path d="M119.904 88.9872L103.789 79.6816C102.938 79.1888 102.246 79.7104 102.246 80.8464V98.7664C102.246 99.9024 102.938 101.221 103.789 101.714L119.904 111.019C120.755 111.512 121.446 110.99 121.446 109.854V91.9344C121.446 90.7984 120.755 89.48 119.904 88.9872Z" fill="white"/>
<path opacity="0.5" d="M122.851 35.976L106.736 26.6704C105.885 26.1776 105.194 26.6992 105.194 27.8352V45.7552C105.194 46.8912 105.885 48.2096 106.736 48.7024L122.851 58.008C123.702 58.5008 124.394 57.9792 124.394 56.8432V38.9232C124.394 37.7872 123.702 36.4688 122.851 35.976Z" fill="url(#paint10_linear_3474_794)"/>
<path d="M120.342 36.9457L104.227 27.6401C103.376 27.1473 102.685 27.6689 102.685 28.8049V46.7249C102.685 47.8609 103.376 49.1793 104.227 49.6721L120.342 58.9777C121.194 59.4705 121.885 58.9489 121.885 57.8129V39.8929C121.885 38.7569 121.194 37.4385 120.342 36.9457Z" fill="url(#paint11_linear_3474_794)"/>
<path d="M119.904 37.2592L103.789 27.9536C102.938 27.4608 102.246 27.9824 102.246 29.1184V47.0384C102.246 48.1744 102.938 49.4928 103.789 49.9856L119.904 59.2912C120.755 59.784 121.446 59.2624 121.446 58.1264V40.2064C121.446 39.0704 120.755 37.752 119.904 37.2592Z" fill="white"/>
<path d="M135.354 46.9616L128.48 42.9936C128.195 42.8304 127.965 42.3888 127.965 42.0112V40.8624C127.965 40.4848 128.195 40.3088 128.48 40.4752L135.354 44.4432C135.638 44.6064 135.869 45.048 135.869 45.4256V46.5744C135.869 46.952 135.638 47.128 135.354 46.9616Z" fill="black"/>
<path d="M149.488 58.5616L128.221 46.2832C128.08 46.2 127.965 45.9824 127.965 45.7904V45.2592C127.965 45.0704 128.08 44.984 128.221 45.064L149.488 57.3424C149.629 57.4256 149.744 57.6432 149.744 57.8352V58.3664C149.744 58.5552 149.629 58.6416 149.488 58.5616Z" fill="#B3B3B3"/>
<path d="M149.488 60.9808L128.221 48.7024C128.08 48.6192 127.965 48.4016 127.965 48.2096V47.6784C127.965 47.4896 128.08 47.4032 128.221 47.4832L149.488 59.7616C149.629 59.8448 149.744 60.0624 149.744 60.2544V60.7856C149.744 60.9744 149.629 61.0608 149.488 60.9808Z" fill="#B3B3B3"/>
<path d="M134.979 55.0192L128.224 51.1184C128.083 51.0352 127.968 50.8176 127.968 50.6256V50.0944C127.968 49.9056 128.083 49.8192 128.224 49.8992L134.979 53.8C135.12 53.8832 135.235 54.1008 135.235 54.2928V54.824C135.235 55.0128 135.12 55.0992 134.979 55.0192Z" fill="#B3B3B3"/>
<path d="M135.354 72.7184L128.48 68.7504C128.195 68.5872 127.965 68.1456 127.965 67.768V66.6192C127.965 66.2416 128.195 66.0656 128.48 66.232L135.354 70.2C135.638 70.3632 135.869 70.8048 135.869 71.1824V72.3312C135.869 72.7088 135.638 72.8848 135.354 72.7184Z" fill="black"/>
<path d="M139.056 74.8561L137.568 73.9985C137.283 73.8353 137.053 73.3937 137.053 73.0161V71.8673C137.053 71.4897 137.283 71.3137 137.568 71.4801L139.056 72.3377C139.341 72.5009 139.571 72.9425 139.571 73.3201V74.4689C139.571 74.8465 139.341 75.0225 139.056 74.8561Z" fill="black"/>
<path d="M148.883 80.5297L141.075 76.0209C140.79 75.8577 140.56 75.4161 140.56 75.0385V73.8897C140.56 73.5121 140.79 73.3361 141.075 73.5025L148.883 78.0113C149.168 78.1745 149.398 78.6161 149.398 78.9937V80.1425C149.398 80.5201 149.168 80.6961 148.883 80.5297Z" fill="black"/>
<path d="M149.488 84.3184L128.221 72.04C128.08 71.9568 127.965 71.7392 127.965 71.5472V71.016C127.965 70.8272 128.08 70.7408 128.221 70.8208L149.488 83.0992C149.629 83.1824 149.744 83.4 149.744 83.592V84.1232C149.744 84.312 149.629 84.3984 149.488 84.3184Z" fill="#B3B3B3"/>
<path d="M149.488 86.7344L128.221 74.456C128.08 74.3728 127.965 74.1552 127.965 73.9632V73.432C127.965 73.2432 128.08 73.1568 128.221 73.2368L149.488 85.5152C149.629 85.5984 149.744 85.816 149.744 86.008V86.5392C149.744 86.728 149.629 86.8144 149.488 86.7344Z" fill="#B3B3B3"/>
<path d="M134.979 80.776L128.224 76.8752C128.083 76.792 127.968 76.5744 127.968 76.3824V75.8512C127.968 75.6624 128.083 75.576 128.224 75.656L134.979 79.5568C135.12 79.64 135.235 79.8576 135.235 80.0496V80.5808C135.235 80.7696 135.12 80.856 134.979 80.776Z" fill="#B3B3B3"/>
<path d="M139.251 100.725L128.48 94.5041C128.195 94.3409 127.965 93.8993 127.965 93.5217V92.3729C127.965 91.9953 128.195 91.8193 128.48 91.9857L139.251 98.2065C139.536 98.3697 139.766 98.8113 139.766 99.1889V100.338C139.766 100.715 139.536 100.891 139.251 100.725Z" fill="black"/>
<path d="M149.488 110.072L128.221 97.7937C128.08 97.7105 127.965 97.4929 127.965 97.3009V96.7697C127.965 96.5809 128.08 96.4945 128.221 96.5745L149.488 108.853C149.629 108.936 149.744 109.154 149.744 109.346V109.877C149.744 110.066 149.629 110.152 149.488 110.072Z" fill="#B3B3B3"/>
<path d="M149.488 112.491L128.221 100.213C128.08 100.13 127.965 99.9121 127.965 99.7201V99.1889C127.965 99.0001 128.08 98.9137 128.221 98.9937L149.488 111.272C149.629 111.355 149.744 111.573 149.744 111.765V112.296C149.744 112.485 149.629 112.571 149.488 112.491Z" fill="#B3B3B3"/>
<path d="M134.979 106.53L128.224 102.629C128.083 102.546 127.968 102.328 127.968 102.136V101.605C127.968 101.416 128.083 101.33 128.224 101.41L134.979 105.31C135.12 105.394 135.235 105.611 135.235 105.803V106.334C135.235 106.523 135.12 106.61 134.979 106.53Z" fill="#B3B3B3"/>
<path d="M136.733 125.026L128.48 120.261C128.195 120.098 127.965 119.656 127.965 119.279V118.13C127.965 117.752 128.195 117.576 128.48 117.743L136.733 122.507C137.018 122.671 137.248 123.112 137.248 123.49V124.639C137.248 125.016 137.018 125.192 136.733 125.026Z" fill="black"/>
<path d="M149.488 135.829L128.221 123.551C128.08 123.467 127.965 123.25 127.965 123.058V122.527C127.965 122.338 128.08 122.251 128.221 122.331L149.488 134.61C149.629 134.693 149.744 134.911 149.744 135.103V135.634C149.744 135.823 149.629 135.909 149.488 135.829Z" fill="#B3B3B3"/>
<path d="M149.488 138.245L128.221 125.967C128.08 125.883 127.965 125.666 127.965 125.474V124.943C127.965 124.754 128.08 124.667 128.221 124.747L149.488 137.026C149.629 137.109 149.744 137.327 149.744 137.519V138.05C149.744 138.239 149.629 138.325 149.488 138.245Z" fill="#B3B3B3"/>
<path d="M134.979 132.287L128.224 128.386C128.083 128.303 127.968 128.085 127.968 127.893V127.362C127.968 127.173 128.083 127.087 128.224 127.167L134.979 131.067C135.12 131.151 135.235 131.368 135.235 131.56V132.091C135.235 132.28 135.12 132.367 134.979 132.287Z" fill="#B3B3B3"/>
<path d="M109.923 73.5184L111.933 64.6672L113.578 66.0496L111.568 74.9008L109.923 73.5184Z" fill="#FF5347"/>
<path d="M109.44 65.1985L106.426 66.9201L106.269 66.6513L105.232 64.8625L108.246 63.1409L109.44 65.1985Z" fill="#07F184"/>
<path d="M106.426 66.9199L106.269 67.0095L105.232 67.6015L105.075 67.3327L104.038 65.5407L105.075 64.9519L105.232 64.8623L106.269 66.6511L106.426 66.9199Z" fill="#00BF5B"/>
<path d="M109.44 72.1231L108.246 72.8047L105.232 67.6015L106.269 67.0095L106.426 66.9199L109.44 72.1231Z" fill="#28DCF3"/>
<path d="M118.269 72.3887L117.232 72.9807L117.075 73.0703L114.058 67.8671L115.251 67.1855L118.269 72.3887Z" fill="#049DDF"/>
<path d="M119.462 74.4465L118.422 75.0385L118.269 75.1281L117.232 73.3393L117.075 73.0705L117.232 72.9809L118.269 72.3889L118.422 72.6577L119.462 74.4465Z" fill="#004C84"/>
<path d="M118.269 75.1279L115.251 76.8463L114.058 74.7887L117.075 73.0703L117.232 73.3391L118.269 75.1279Z" fill="#7161DA"/>
<path d="M117.485 45.7329C117.491 46.5809 117.014 47.1473 116.045 47.2273C114.118 47.3905 110.982 45.5761 109.043 43.1697C108.08 41.9761 107.594 40.8625 107.581 40.0209C107.581 39.9729 107.581 38.3569 107.584 37.7297C107.584 37.7553 107.584 37.7809 107.59 37.8065C107.59 37.8289 107.594 37.8545 107.597 37.8801C107.597 37.8865 107.597 37.8929 107.597 37.8993C107.597 37.9185 107.6 37.9409 107.603 37.9633C107.606 37.9953 107.613 38.0241 107.619 38.0561C107.622 38.0817 107.629 38.1073 107.632 38.1329C107.645 38.1905 107.658 38.2481 107.67 38.3057C107.677 38.3345 107.686 38.3633 107.693 38.3953C107.757 38.6321 107.853 38.8785 107.974 39.1377C107.987 39.1665 108 39.1953 108.016 39.2241C108.035 39.2657 108.054 39.3041 108.077 39.3457C108.09 39.3745 108.106 39.4033 108.122 39.4353C108.138 39.4673 108.157 39.5025 108.176 39.5345C108.195 39.5665 108.214 39.6017 108.234 39.6369C108.253 39.6721 108.272 39.7041 108.294 39.7393C108.31 39.7681 108.33 39.7969 108.349 39.8257C108.374 39.8705 108.403 39.9121 108.432 39.9569C108.451 39.9889 108.47 40.0177 108.493 40.0497C108.515 40.0849 108.538 40.1201 108.563 40.1553C108.611 40.2257 108.659 40.2961 108.71 40.3665C108.736 40.4017 108.762 40.4369 108.787 40.4721C108.867 40.5777 108.95 40.6865 109.037 40.7953C110.976 43.2017 114.112 45.0161 116.038 44.8529C117.05 44.7665 117.526 44.1521 117.472 43.2401C117.472 43.2305 117.475 43.2209 117.475 43.2081C117.478 43.8161 117.469 45.1921 117.475 45.7329H117.485Z" fill="#07F184"/>
<path d="M117.485 48.0945C117.491 48.9425 117.014 49.5089 116.045 49.5889C114.118 49.7521 110.982 47.9377 109.043 45.5313C108.08 44.3377 107.594 43.2241 107.581 42.3825C107.581 42.3345 107.581 40.7185 107.584 40.0913C107.584 40.1169 107.584 40.1425 107.59 40.1681C107.59 40.1905 107.594 40.2161 107.597 40.2417C107.597 40.2481 107.597 40.2545 107.597 40.2609C107.597 40.2801 107.6 40.3025 107.603 40.3249C107.606 40.3569 107.613 40.3857 107.619 40.4177C107.622 40.4433 107.629 40.4689 107.632 40.4945C107.645 40.5521 107.658 40.6097 107.67 40.6673C107.677 40.6961 107.686 40.7249 107.693 40.7569C107.757 40.9937 107.853 41.2401 107.974 41.4993C107.987 41.5281 108 41.5569 108.016 41.5857C108.035 41.6273 108.054 41.6657 108.077 41.7073C108.09 41.7361 108.106 41.7649 108.122 41.7969C108.138 41.8289 108.157 41.8641 108.176 41.8961C108.195 41.9281 108.214 41.9633 108.234 41.9985C108.253 42.0337 108.272 42.0657 108.294 42.1009C108.31 42.1297 108.33 42.1585 108.349 42.1873C108.374 42.2321 108.403 42.2737 108.432 42.3185C108.451 42.3505 108.47 42.3793 108.493 42.4113C108.515 42.4465 108.538 42.4817 108.563 42.5169C108.611 42.5873 108.659 42.6577 108.71 42.7281C108.736 42.7633 108.762 42.7985 108.787 42.8337C108.867 42.9393 108.95 43.0481 109.037 43.1569C110.976 45.5633 114.112 47.3777 116.038 47.2145C117.05 47.1281 117.526 46.5137 117.472 45.6017C117.472 45.5921 117.475 45.5825 117.475 45.5697C117.478 46.1777 117.469 47.5537 117.475 48.0945H117.485Z" fill="#28DCF3"/>
<path d="M117.485 50.4561C117.491 51.3041 117.014 51.8705 116.045 51.9505C114.118 52.1137 110.982 50.2993 109.043 47.8929C108.08 46.6993 107.594 45.5857 107.581 44.7441C107.581 44.6961 107.581 43.0801 107.584 42.4529C107.584 42.4785 107.584 42.5041 107.59 42.5297C107.59 42.5521 107.594 42.5777 107.597 42.6033C107.597 42.6097 107.597 42.6161 107.597 42.6225C107.597 42.6417 107.6 42.6641 107.603 42.6865C107.606 42.7185 107.613 42.7473 107.619 42.7793C107.622 42.8049 107.629 42.8305 107.632 42.8561C107.645 42.9137 107.658 42.9713 107.67 43.0289C107.677 43.0577 107.686 43.0865 107.693 43.1185C107.757 43.3553 107.853 43.6017 107.974 43.8609C107.987 43.8897 108 43.9185 108.016 43.9473C108.035 43.9889 108.054 44.0273 108.077 44.0689C108.09 44.0977 108.106 44.1265 108.122 44.1585C108.138 44.1905 108.157 44.2257 108.176 44.2577C108.195 44.2897 108.214 44.3249 108.234 44.3601C108.253 44.3953 108.272 44.4273 108.294 44.4625C108.31 44.4913 108.33 44.5201 108.349 44.5489C108.374 44.5937 108.403 44.6353 108.432 44.6801C108.451 44.7121 108.47 44.7409 108.493 44.7729C108.515 44.8081 108.538 44.8433 108.563 44.8785C108.611 44.9489 108.659 45.0193 108.71 45.0897C108.736 45.1249 108.762 45.1601 108.787 45.1953C108.867 45.3009 108.95 45.4097 109.037 45.5185C110.976 47.9249 114.112 49.7393 116.038 49.5761C117.05 49.4897 117.526 48.8753 117.472 47.9633C117.472 47.9537 117.475 47.9441 117.475 47.9313C117.478 48.5393 117.469 49.9153 117.475 50.4561H117.485Z" fill="#049DDF"/>
<path d="M107.587 37.4929C107.587 37.5089 107.587 37.5953 107.587 37.7297C107.584 37.6465 107.584 37.5697 107.587 37.4929Z" fill="#07F184"/>
<path d="M117.178 44.3308C118.126 43.1838 116.814 40.5354 114.249 38.4154C111.684 36.2955 108.836 35.5069 107.888 36.654C106.94 37.8011 108.251 40.4495 110.816 42.5694C113.382 44.6893 116.23 45.4779 117.178 44.3308Z" fill="#28DCF3"/>
<path d="M114.496 44.6512C113.901 44.4752 113.242 44.1872 112.55 43.7872C112.406 43.704 112.266 43.6176 112.125 43.528C110.362 42.408 108.861 40.8272 108.106 39.3872C107.776 38.7568 107.587 38.1552 107.584 37.6304C107.574 35.8128 109.786 35.624 112.518 37.2112L112.534 40.5008L114.496 44.6544V44.6512Z" fill="#7161DA"/>
<path d="M117.488 43.368C117.488 43.7616 117.389 44.0784 117.197 44.3184L112.534 40.4976L112.518 37.208C115.254 38.792 117.478 41.5504 117.485 43.368H117.488Z" fill="#FCD647"/>
<path d="M117.197 44.3184C116.733 44.904 115.747 45.0224 114.496 44.6512L112.534 40.4976L117.197 44.3184Z" fill="#FF5347"/>
<path d="M108.304 126.095L104.858 124.104V120.149L108.304 122.139V126.095Z" fill="#FF5347"/>
<path d="M108.304 123.023L104.858 121.032V120.149L108.304 122.139V123.023Z" fill="#FCD647"/>
<path d="M111.75 128.082L108.304 126.094V118.978L111.75 120.965V128.082Z" fill="#049DDF"/>
<path d="M111.75 121.848L108.304 119.861V118.978L111.75 120.965V121.848Z" fill="#28DCF3"/>
<path d="M115.197 130.072L111.75 128.082V117.848L115.197 119.838V130.072Z" fill="#00BF5B"/>
<path d="M115.197 120.722L111.75 118.731V117.848L115.197 119.838V120.722Z" fill="#07F184"/>
<path d="M118.643 132.062L115.197 130.072V116.648L118.643 118.638V132.062Z" fill="#3B3BB7"/>
<path d="M118.643 119.522L115.197 117.531V116.648L118.643 118.638V119.522Z" fill="#7161DA"/>
<path d="M114.454 88.7664L115.824 103.256L106.31 99.016L104.938 84.5264L114.454 88.7664Z" fill="#012A56"/>
<path d="M116.314 93.6335V104.84L106.365 99.0959V84.7695L113.594 88.9423L116.314 93.6335Z" fill="#004C84"/>
<path d="M116.314 93.6336L113.594 92.0624V88.9424L116.314 93.6336Z" fill="#049DDF"/>
<path d="M108.125 96.2191L106.992 94.2671L110.141 92.4719L111.274 94.4239L108.125 96.2191Z" fill="#049DDF"/>
<path d="M112.966 98.7249L109.578 92.7792L110.723 92.1584L114.112 98.1041L112.966 98.7249Z" fill="#FCD647"/>
<path d="M113.386 99.4801L112.272 97.5185L117.997 94.4561L119.11 96.4177L113.386 99.4801Z" fill="#07F184"/>
<path d="M116.912 93.1985L119.632 94.7665V97.8865L116.912 93.1985Z" fill="#07F184"/>
<path d="M109.546 92.7919L110.707 94.7855L111.859 94.1295L110.726 92.1455L109.546 92.7919Z" fill="#FF5347"/>
<path opacity="0.2" d="M150.355 93.9281C150.355 94.1777 150.349 94.4209 150.346 94.6641C150.339 94.8977 150.336 95.1281 150.32 95.3553C150.294 96.0273 150.24 96.6833 150.166 97.3169C150.15 97.4705 150.131 97.6209 150.112 97.7681C150.096 97.9089 150.077 98.0529 150.051 98.1905C150.032 98.3313 150.013 98.4657 149.987 98.6001C149.968 98.7409 149.942 98.8849 149.914 99.0289C149.862 99.3169 149.808 99.5953 149.744 99.8737C149.728 99.9473 149.709 100.027 149.69 100.104C149.654 100.267 149.616 100.427 149.571 100.587C149.507 100.856 149.43 101.125 149.354 101.384C149.27 101.669 149.181 101.95 149.078 102.226C149.024 102.386 148.963 102.539 148.906 102.693C148.867 102.802 148.822 102.91 148.778 103.022C148.714 103.192 148.643 103.355 148.57 103.518C148.49 103.707 148.4 103.893 148.317 104.075C148.243 104.229 148.163 104.379 148.086 104.526C148.042 104.61 147.997 104.696 147.946 104.779V104.786C147.91 104.85 147.875 104.91 147.84 104.974C147.76 105.115 147.68 105.253 147.59 105.394C147.494 105.554 147.395 105.707 147.296 105.861C147.062 106.203 146.822 106.536 146.57 106.85C146.442 107.01 146.307 107.17 146.173 107.323C146.038 107.474 145.898 107.621 145.76 107.771C145.619 107.915 145.475 108.056 145.331 108.194C145.162 108.354 144.989 108.507 144.81 108.651C144.701 108.747 144.586 108.837 144.47 108.926C144.362 109.01 144.253 109.09 144.141 109.17C144.032 109.253 143.917 109.33 143.798 109.41C143.683 109.49 143.565 109.563 143.446 109.634C143.283 109.739 143.114 109.838 142.938 109.931C142.81 110.002 142.698 110.056 142.618 110.094C142.608 110.101 142.598 110.104 142.589 110.11C142.56 110.13 142.525 110.146 142.493 110.162C142.454 110.181 142.432 110.19 142.432 110.19C138.013 112.344 132.093 111.806 125.584 108.05C111.904 100.152 100.813 81.0193 100.813 65.3233C100.813 58.0049 103.226 52.7185 107.19 49.9761C107.251 49.9249 107.309 49.8865 107.37 49.8577C107.379 49.8481 107.395 49.8417 107.408 49.8321C107.696 49.6273 107.994 49.4481 108.304 49.2849C108.643 49.0993 108.992 48.9329 109.35 48.7825C109.59 48.6833 109.827 48.5937 110.07 48.5073C110.195 48.4625 110.32 48.4241 110.445 48.3825C111.702 47.9953 113.056 47.7969 114.496 47.7969C114.694 47.7969 114.893 47.8033 115.098 47.8129C115.267 47.8225 115.43 47.8289 115.6 47.8385C115.974 47.8673 116.352 47.9089 116.73 47.9633C116.899 47.9889 117.072 48.0145 117.248 48.0433C117.597 48.0977 117.946 48.1681 118.298 48.2481C118.477 48.2865 118.656 48.3313 118.835 48.3761C119.014 48.4209 119.194 48.4657 119.373 48.5201C119.552 48.5713 119.731 48.6193 119.914 48.6801C120.352 48.8081 120.79 48.9649 121.232 49.1313C121.43 49.2017 121.629 49.2753 121.83 49.3617C121.958 49.4129 122.093 49.4673 122.224 49.5249C122.384 49.5889 122.544 49.6593 122.701 49.7297C123.645 50.1489 124.608 50.6417 125.581 51.2017C139.261 59.1025 150.352 78.2321 150.352 93.9281H150.355Z" fill="#191932"/>
<path opacity="0.8" d="M96.0512 119.403C96.0512 125.154 94.4032 129.515 91.6256 132.187C87.7504 133.621 82.784 132.958 77.3696 129.832C65.0016 122.69 54.9664 105.387 54.9664 91.1887C54.9664 85.4384 56.6144 81.0768 59.392 78.4048C63.2672 76.9712 68.2304 77.6303 73.648 80.7567C86.016 87.9023 96.0512 105.205 96.0512 119.403Z" fill="white"/>
<path d="M89.4656 133.608C85.9712 134.03 81.872 133.07 77.4816 130.536C64.7392 123.179 54.4064 105.355 54.4064 90.7311C54.4064 85.9631 55.504 82.1231 57.424 79.3711C53.5904 81.7647 51.2384 86.6543 51.2384 93.5343C51.2384 107.733 61.2704 125.032 73.648 132.177C80.0384 135.867 85.8048 136.123 89.888 133.547C89.7472 133.569 89.6064 133.592 89.4656 133.608Z" fill="#E2E2FC"/>
<path d="M74.0064 77.784C73.0304 77.2208 72.0704 76.7279 71.1232 76.3087C70.9632 76.2415 70.8064 76.1712 70.6464 76.1072C70.5152 76.0464 70.3808 75.992 70.2528 75.9408C70.0544 75.8576 69.856 75.7839 69.6544 75.7135C69.2128 75.5439 68.7744 75.3904 68.336 75.2592C68.1536 75.2016 67.9744 75.1504 67.7952 75.1024C67.616 75.0448 67.4368 75 67.2576 74.9552C67.0784 74.9104 66.8992 74.8656 66.72 74.8272C66.368 74.7472 66.0192 74.6768 65.6704 74.6224C65.4976 74.5936 65.3216 74.568 65.152 74.5424C64.7744 74.488 64.3968 74.4495 64.0224 74.4175C63.8528 74.4079 63.6896 74.4048 63.52 74.3952C63.3152 74.3856 63.1168 74.3792 62.9184 74.3792C61.4816 74.3792 60.128 74.5775 58.8672 74.9679C58.7424 75.0063 58.6208 75.0448 58.496 75.0896C58.2496 75.176 58.0128 75.2656 57.7728 75.3648C57.4144 75.5152 57.0656 75.6816 56.7296 75.8672C56.4192 76.0304 56.1216 76.2096 55.8336 76.4144C55.8176 76.424 55.8016 76.4304 55.792 76.44C55.7344 76.4688 55.6736 76.5103 55.6128 76.5583C51.648 79.3007 49.2352 84.5839 49.2352 91.9055C49.2352 107.605 60.3264 126.734 74.0064 134.632C80.512 138.389 86.4352 138.926 90.8544 136.773C90.8544 136.773 90.8736 136.763 90.912 136.741C90.944 136.728 90.976 136.712 91.008 136.693C91.0176 136.686 91.0272 136.683 91.0368 136.677C91.1168 136.638 91.2256 136.584 91.3568 136.514C91.5296 136.418 91.6992 136.318 91.8624 136.216C91.984 136.146 92.1024 136.069 92.2176 135.992C92.336 135.912 92.4512 135.835 92.56 135.752C92.6688 135.672 92.7776 135.592 92.8896 135.509C93.0016 135.419 93.1168 135.33 93.2256 135.234C93.4048 135.09 93.5808 134.936 93.7504 134.776C93.8944 134.638 94.0384 134.498 94.176 134.354C94.3168 134.203 94.4544 134.056 94.5888 133.906C94.7232 133.752 94.8576 133.592 94.9888 133.432C95.2416 133.118 95.4816 132.786 95.7152 132.443C95.8144 132.29 95.9136 132.136 96.0096 131.976C96.0992 131.835 96.176 131.698 96.256 131.557C96.2912 131.493 96.3264 131.432 96.3616 131.368V131.362C96.4128 131.278 96.4576 131.195 96.4992 131.109C96.576 130.962 96.656 130.811 96.7296 130.658C96.8128 130.472 96.9024 130.29 96.9824 130.101C97.0592 129.934 97.1264 129.771 97.1936 129.602C97.2384 129.493 97.2832 129.384 97.3216 129.272C97.3824 129.118 97.44 128.965 97.4944 128.805C97.5968 128.533 97.6864 128.248 97.7696 127.963C97.8496 127.707 97.9232 127.438 97.9872 127.17C98.032 127.01 98.0736 126.85 98.1088 126.686C98.128 126.613 98.1472 126.533 98.1632 126.456C98.2272 126.178 98.2816 125.899 98.3328 125.611C98.3616 125.467 98.3872 125.323 98.4064 125.182C98.432 125.048 98.4512 124.914 98.4704 124.776C98.496 124.635 98.5152 124.491 98.5312 124.354C98.5504 124.203 98.5696 124.053 98.5856 123.899C98.6592 123.269 98.7136 122.61 98.7392 121.938C98.7552 121.71 98.7584 121.48 98.7648 121.246C98.7712 121.003 98.7744 120.76 98.7744 120.51C98.7744 104.811 87.6832 85.6848 74.0064 77.784ZM73.648 132.178C61.2704 125.032 51.2384 107.733 51.2384 93.5344C51.2384 86.6544 53.5904 81.7648 57.424 79.3712C58.0416 78.9808 58.7008 78.6608 59.392 78.4048C63.2672 76.9712 68.2304 77.6303 73.648 80.7567C86.016 87.9023 96.0512 105.205 96.0512 119.403C96.0512 125.154 94.4032 129.515 91.6256 132.187C91.088 132.706 90.5056 133.16 89.888 133.547C85.8048 136.123 80.0384 135.867 73.648 132.178Z" fill="#07F184"/>
<path d="M103.6 117.723C103.6 124.411 101.584 129.397 98.2209 132.302C97.9361 132.546 97.5937 132.811 97.2161 133.08C95.3217 134.418 92.4897 135.925 91.3537 136.514C91.5265 136.418 91.6961 136.318 91.8625 136.216C91.9809 136.146 92.1025 136.072 92.2145 135.992C92.3329 135.912 92.4481 135.838 92.5569 135.752C92.6657 135.672 92.7745 135.592 92.8865 135.509C93.0017 135.419 93.1169 135.33 93.2257 135.234C93.4049 135.09 93.5777 134.936 93.7473 134.776C93.8977 134.642 94.0353 134.498 94.1761 134.354C94.3201 134.21 94.4609 134.059 94.5889 133.906C94.7297 133.755 94.8577 133.598 94.9857 133.432C95.2385 133.118 95.4817 132.789 95.7121 132.443C95.8113 132.29 95.9105 132.136 96.0065 131.976C96.0961 131.835 96.1761 131.698 96.2561 131.557C96.2913 131.493 96.3265 131.432 96.3617 131.368V131.362C96.4129 131.278 96.4577 131.192 96.5025 131.109C96.5761 130.958 96.6561 130.811 96.7329 130.658C96.8225 130.472 96.9057 130.29 96.9857 130.101C97.0593 129.938 97.1297 129.771 97.1937 129.605C97.2385 129.496 97.2833 129.387 97.3217 129.275C97.3857 129.122 97.4401 128.968 97.4945 128.808C97.5905 128.533 97.6833 128.254 97.7697 127.966C97.8497 127.707 97.9233 127.438 97.9873 127.17C98.0321 127.01 98.0705 126.85 98.1057 126.686C98.1249 126.613 98.1441 126.533 98.1601 126.456C98.2241 126.178 98.2785 125.899 98.3297 125.611C98.3585 125.467 98.3841 125.323 98.4033 125.182C98.4289 125.048 98.4481 124.914 98.4673 124.773C98.4929 124.632 98.5121 124.488 98.5281 124.35C98.5473 124.2 98.5665 124.053 98.5825 123.896C98.6561 123.266 98.7105 122.606 98.7361 121.934C98.7521 121.704 98.7553 121.477 98.7617 121.243C98.7681 121 98.7713 120.757 98.7713 120.507C98.7713 104.808 87.6801 85.6815 74.0001 77.7807C73.0241 77.2175 72.0641 76.7247 71.1201 76.3087C70.9601 76.2351 70.8001 76.1679 70.6433 76.1039C70.5153 76.0431 70.3809 75.9887 70.2497 75.9407C70.0513 75.8575 69.8529 75.7807 69.6513 75.7103C69.2097 75.5407 68.7713 75.3871 68.3329 75.2559C68.1473 75.1951 67.9681 75.1407 67.7921 75.0959C67.6129 75.0415 67.4337 74.9903 67.2545 74.9519C67.0753 74.9007 66.8961 74.8623 66.7169 74.8239C66.3649 74.7407 66.0097 74.6735 65.6673 74.6191C65.4945 74.5839 65.3185 74.5583 65.1489 74.5391C64.7649 74.4783 64.3873 74.4431 64.0193 74.4143C63.8497 74.4047 63.6865 74.3983 63.5169 74.3887C63.3121 74.3791 63.1137 74.3727 62.9153 74.3727C61.4785 74.3727 60.1249 74.5711 58.8641 74.9583C58.7393 74.9967 58.6145 75.0383 58.4897 75.0831C58.2465 75.1663 58.0033 75.2559 57.7697 75.3583C57.4113 75.5087 57.0625 75.6783 56.7233 75.8607C58.3041 74.9007 61.1553 73.2047 62.4001 72.6575C66.7681 70.7311 72.5217 71.3551 78.8257 74.9903C92.5057 82.8911 103.597 102.021 103.597 117.717L103.6 117.723Z" fill="#004C84"/>
<path d="M91.6256 132.187C91.088 132.706 90.5056 133.16 89.888 133.547C85.8048 136.123 80.0384 135.867 73.648 132.178C61.2704 125.032 51.2384 107.733 51.2384 93.5344C51.2384 86.6544 53.5904 81.7648 57.424 79.3712C58.0416 78.9808 58.7008 78.6608 59.392 78.4048C56.6144 81.0768 54.9664 85.4384 54.9664 91.1888C54.9664 105.387 65.0016 122.69 77.3696 129.832C82.784 132.958 87.7504 133.621 91.6256 132.187Z" fill="#004C84"/>
<path d="M97.3697 130.19C97.5841 129.173 98.5793 128.11 99.5937 127.822C100.099 127.678 100.512 127.752 100.774 127.992C101.034 128.229 106.227 133.112 106.227 133.112C105.968 132.875 105.555 132.795 105.046 132.942C104.035 133.234 103.04 134.293 102.822 135.31C102.726 135.765 102.8 136.13 103.002 136.376C102.563 135.97 97.8849 131.573 97.6289 131.342C97.3665 131.102 97.2609 130.699 97.3697 130.19Z" fill="#004C84"/>
<path d="M102.822 135.31C103.037 134.293 104.032 133.23 105.046 132.942C105.552 132.798 105.968 132.875 106.227 133.115C106.49 133.355 106.595 133.755 106.49 134.264C106.275 135.282 105.28 136.344 104.266 136.632C103.712 136.789 103.267 136.683 103.014 136.389C103.011 136.386 103.008 136.382 103.002 136.376C102.8 136.13 102.726 135.765 102.822 135.31Z" fill="white"/>
<path d="M101.379 136.162C101.763 134.344 103.539 132.456 105.344 131.941C106.243 131.685 106.982 131.819 107.45 132.245C107.91 132.671 128.387 151.752 128.387 151.752C127.926 151.327 127.187 151.189 126.285 151.448C124.48 151.967 122.704 153.855 122.32 155.672C122.147 156.482 122.278 157.135 122.64 157.573C121.859 156.847 102.301 138.629 101.846 138.216C101.379 137.787 101.19 137.067 101.382 136.159L101.379 136.162Z" fill="url(#paint12_linear_3474_794)"/>
<path d="M122.32 155.672C122.704 153.854 124.48 151.966 126.285 151.448C127.187 151.192 127.93 151.33 128.387 151.758C128.854 152.187 129.046 152.901 128.854 153.81C128.47 155.627 126.694 157.515 124.89 158.03C123.904 158.312 123.107 158.123 122.659 157.595C122.653 157.589 122.646 157.582 122.637 157.573C122.278 157.134 122.147 156.482 122.317 155.672H122.32Z" fill="url(#paint13_linear_3474_794)"/>
<path d="M122.32 155.672C122.704 153.854 124.48 151.966 126.285 151.448C127.187 151.192 127.93 151.33 128.387 151.758C128.854 152.187 129.046 152.901 128.854 153.81C128.47 155.627 126.694 157.515 124.89 158.03C123.904 158.312 123.107 158.123 122.659 157.595C122.653 157.589 122.646 157.582 122.637 157.573C122.278 157.134 122.147 156.482 122.317 155.672H122.32Z" fill="#004C84"/>
<path d="M101.379 136.162C101.763 134.344 103.539 132.456 105.344 131.941C106.243 131.685 106.982 131.819 107.45 132.245C107.91 132.671 128.387 151.752 128.387 151.752C127.926 151.327 127.187 151.189 126.285 151.448C124.48 151.967 122.704 153.855 122.32 155.672C122.147 156.482 122.278 157.135 122.64 157.573C121.859 156.847 102.301 138.629 101.846 138.216C101.379 137.787 101.19 137.067 101.382 136.159L101.379 136.162Z" fill="#049DDF"/>
<path d="M88.9473 115.611L86.1889 110.869L88.9505 109.294L89.1969 109.154L88.9505 108.731L87.1009 105.544L86.8545 105.122L86.6081 105.262L83.8465 106.837L81.1041 102.085L80.8577 101.659L80.6113 101.797L78.7617 102.85L78.5185 102.99L78.7617 103.413L81.5073 108.168L78.7617 109.733L78.5153 109.874L78.7617 110.296L80.6113 113.483L80.8577 113.906L81.1041 113.765L83.8497 112.2L86.6113 116.946L86.8545 117.365L87.1009 117.224L88.9505 116.171L89.1969 116.03L88.9505 115.608L88.9473 115.611Z" fill="#262626"/>
<path d="M73.6224 97.2976V112.142L77.0528 114.123V97.5184L73.6224 97.2976Z" fill="#262626"/>
<path d="M68.1024 103.045C68.0448 104.277 67.1296 104.757 66.0128 104.11C64.896 103.464 63.92 101.829 63.92 100.501C63.92 99.1728 64.8576 98.6416 66.0128 99.3072C67.168 99.9728 68.0448 101.486 68.1024 102.786V103.042V103.045ZM68.1024 96.9456V97.4672C67.4624 96.776 66.7552 96.1872 66.0128 95.7552C63.1456 94.1008 60.8224 95.4256 60.8224 98.7152C60.8224 102.005 63.1456 106.011 66.0128 107.666C66.7552 108.094 67.4624 108.322 68.1024 108.366V108.952L71.5328 110.933V98.9296L68.1024 96.9488V96.9456Z" fill="#262626"/>
<path opacity="0.5" d="M76.4567 94.8167C78.6125 93.5564 78.5902 89.5069 76.4068 85.7719C74.2233 82.0369 70.7056 80.0308 68.5498 81.291C66.3939 82.5513 66.4163 86.6008 68.5997 90.3358C70.7831 94.0708 74.3008 96.0769 76.4567 94.8167Z" fill="white"/>
<path d="M178.458 142.843C178.314 142.997 178.16 143.141 177.971 143.275C177.395 143.624 176.848 143.842 176.326 144.011C175.68 144.226 175.088 144.379 174.541 144.638C174.909 144.459 176.883 143.499 177.155 143.355C177.558 143.131 177.99 142.987 178.458 142.843Z" fill="url(#paint14_linear_3474_794)"/>
<path d="M179.338 155.954L179.312 161.582L176.474 162.974L176.502 157.346L179.338 155.954Z" fill="url(#paint15_linear_3474_794)"/>
<path d="M179.338 155.954L179.312 161.582L176.474 162.974L176.502 157.346L179.338 155.954Z" fill="#33334C"/>
<path d="M173.197 131.637C173.082 132.014 173.037 132.462 173.043 132.955L170.205 134.347C169.974 132.91 170.672 131.931 171.462 131.627C171.91 131.413 172.512 131.429 173.197 131.637Z" fill="#33334C"/>
<path d="M180.362 148.427C180.272 148.507 180.192 148.597 180.118 148.696C179.328 149.736 179.363 150.6 179.357 152.459L176.518 153.851C176.528 151.992 176.493 151.131 177.283 150.098C177.93 149.227 179.178 149.019 180.362 148.427Z" fill="#33334C"/>
<path d="M186.765 140.869C186.746 143.851 185.542 145.662 183.757 146.725C182.992 147.218 182.15 147.47 181.421 147.784C182.928 146.69 183.907 144.955 183.926 142.261C183.936 140.078 183.29 137.547 182.058 135.246C180.342 131.906 177.622 129.39 174.704 127.685C173.034 126.706 171.338 126.178 169.901 126.258C169.558 126.277 169.235 126.328 168.931 126.421C168.717 126.475 168.518 126.546 168.33 126.635C168.518 126.536 171.357 125.128 171.77 125.019C173.376 124.562 175.488 125.09 177.542 126.293C180.461 127.989 183.181 130.514 184.896 133.845C186.125 136.152 186.771 138.677 186.765 140.866V140.869Z" fill="#33334C"/>
<path d="M185.565 135.256L182.81 136.846C182.592 136.306 182.339 135.771 182.061 135.246C180.346 131.906 177.622 129.394 174.707 127.685C173.037 126.709 171.338 126.178 169.901 126.258C169.562 126.277 169.238 126.331 168.931 126.421C168.726 126.472 168.538 126.539 168.355 126.622C168.694 126.45 171.37 125.125 171.77 125.019C173.376 124.562 175.488 125.09 177.542 126.293C180.461 127.992 183.181 130.514 184.896 133.845C185.142 134.309 185.366 134.779 185.565 135.256Z" fill="#808099"/>
<path d="M174.797 156.347L171.974 154.706L171.949 160.334L176.474 162.974L176.502 157.346L174.797 156.347Z" fill="#4D4D66"/>
<path d="M182.061 135.246C180.346 131.906 177.626 129.391 174.707 127.685C173.037 126.706 171.341 126.178 169.904 126.258C169.562 126.277 169.238 126.328 168.934 126.421C168.72 126.475 168.522 126.546 168.333 126.635C166.787 127.362 165.882 129.25 165.683 131.707L169.84 134.133L170.208 134.347C170.208 134.232 170.208 134.114 170.218 133.998C170.262 132.814 170.675 131.934 171.466 131.627C171.914 131.413 172.515 131.429 173.2 131.637C173.702 131.79 174.243 132.031 174.806 132.363C176.288 133.234 177.734 134.536 178.586 136.296C179.162 137.374 179.357 138.523 179.357 139.726C179.347 141.045 179.142 142.088 178.458 142.843C178.314 142.997 178.16 143.141 177.971 143.275C177.395 143.624 176.848 143.842 176.326 144.011C175.68 144.226 175.088 144.379 174.541 144.638C174.531 144.638 174.522 144.648 174.506 144.658C173.974 144.91 173.501 145.279 173.088 145.925C172.218 147.192 171.955 148.958 171.949 151.186L176.518 153.851C176.528 151.992 176.493 151.131 177.283 150.098C177.93 149.227 179.178 149.019 180.362 148.427C180.55 148.338 180.739 148.229 180.918 148.114C181.088 148.015 181.261 147.899 181.421 147.781C182.928 146.686 183.907 144.952 183.926 142.258C183.936 140.075 183.29 137.544 182.058 135.243L182.061 135.246Z" fill="#4D4D66"/>
<path d="M174.813 153.304L171.974 154.706L174.797 156.347L176.502 157.346L179.338 155.954L174.813 153.304Z" fill="#808099"/>
<path opacity="0.4" d="M168.518 161.474L165.68 162.872L183.926 173.157L186.765 171.765L168.518 161.474Z" fill="url(#paint16_linear_3474_794)"/>
<path opacity="0.4" d="M106.832 166.782L105.811 167.285L100.358 164.398L101.52 163.826L63.6192 143.742L58.6752 146.181L96.5888 166.261L97.6736 165.726L103.123 168.613L102.131 169.102L121.158 179.182L125.856 176.862L106.832 166.782Z" fill="url(#paint17_linear_3474_794)"/>
</g>
<defs>
<linearGradient id="paint0_linear_3474_794" x1="101.472" y1="157.573" x2="159.958" y2="157.573" gradientUnits="userSpaceOnUse">
<stop stop-color="#012A56"/>
<stop offset="1" stop-color="#012A56" stop-opacity="0.3"/>
</linearGradient>
<linearGradient id="paint1_linear_3474_794" x1="115.693" y1="53.6992" x2="120.503" y2="62.0297" gradientUnits="userSpaceOnUse">
<stop stop-color="#C3CCEA"/>
<stop offset="0.98" stop-color="#A7AFD1"/>
</linearGradient>
<linearGradient id="paint2_linear_3474_794" x1="86.832" y1="13.801" x2="166.728" y2="152.185" gradientUnits="userSpaceOnUse">
<stop stop-color="#C3CCEA"/>
<stop offset="1" stop-color="#FBFAFF"/>
</linearGradient>
<linearGradient id="paint3_linear_3474_794" x1="132.144" y1="26.4689" x2="133.686" y2="26.4689" gradientUnits="userSpaceOnUse">
<stop stop-color="#FBFAFF" stop-opacity="0"/>
<stop offset="1" stop-color="#FBFAFF"/>
</linearGradient>
<linearGradient id="paint4_linear_3474_794" x1="105.194" y1="119.822" x2="124.394" y2="119.822" gradientUnits="userSpaceOnUse">
<stop stop-color="#012A56"/>
<stop offset="1" stop-color="#012A56" stop-opacity="0.3"/>
</linearGradient>
<linearGradient id="paint5_linear_3474_794" x1="102.685" y1="120.792" x2="121.885" y2="120.792" gradientUnits="userSpaceOnUse">
<stop stop-color="#C3CCEA"/>
<stop offset="0.98" stop-color="#A7AFD1"/>
</linearGradient>
<linearGradient id="paint6_linear_3474_794" x1="105.194" y1="68.2448" x2="124.394" y2="68.2448" gradientUnits="userSpaceOnUse">
<stop stop-color="#012A56"/>
<stop offset="1" stop-color="#012A56" stop-opacity="0.3"/>
</linearGradient>
<linearGradient id="paint7_linear_3474_794" x1="102.685" y1="69.2145" x2="121.885" y2="69.2145" gradientUnits="userSpaceOnUse">
<stop stop-color="#C3CCEA"/>
<stop offset="0.98" stop-color="#A7AFD1"/>
</linearGradient>
<linearGradient id="paint8_linear_3474_794" x1="105.194" y1="94.0688" x2="124.394" y2="94.0688" gradientUnits="userSpaceOnUse">
<stop stop-color="#012A56"/>
<stop offset="1" stop-color="#012A56" stop-opacity="0.3"/>
</linearGradient>
<linearGradient id="paint9_linear_3474_794" x1="102.685" y1="95.0385" x2="121.885" y2="95.0385" gradientUnits="userSpaceOnUse">
<stop stop-color="#C3CCEA"/>
<stop offset="0.98" stop-color="#A7AFD1"/>
</linearGradient>
<linearGradient id="paint10_linear_3474_794" x1="105.194" y1="42.3408" x2="124.394" y2="42.3408" gradientUnits="userSpaceOnUse">
<stop stop-color="#012A56"/>
<stop offset="1" stop-color="#012A56" stop-opacity="0.3"/>
</linearGradient>
<linearGradient id="paint11_linear_3474_794" x1="102.685" y1="43.3105" x2="121.885" y2="43.3105" gradientUnits="userSpaceOnUse">
<stop stop-color="#C3CCEA"/>
<stop offset="0.98" stop-color="#A7AFD1"/>
</linearGradient>
<linearGradient id="paint12_linear_3474_794" x1="117.146" y1="144.157" x2="119.368" y2="141.962" gradientUnits="userSpaceOnUse">
<stop stop-color="#C6C6DF"/>
<stop offset="1" stop-color="#EFEFFF"/>
</linearGradient>
<linearGradient id="paint13_linear_3474_794" x1="122.243" y1="154.741" x2="128.928" y2="154.741" gradientUnits="userSpaceOnUse">
<stop stop-color="#FF5347" stop-opacity="0.6"/>
<stop offset="1" stop-color="#FCD647"/>
</linearGradient>
<linearGradient id="paint14_linear_3474_794" x1="174.544" y1="143.742" x2="178.458" y2="143.742" gradientUnits="userSpaceOnUse">
<stop stop-color="#049DF8"/>
<stop offset="1" stop-color="#012A6F"/>
</linearGradient>
<linearGradient id="paint15_linear_3474_794" x1="173.83" y1="127.678" x2="177.99" y2="160.11" gradientUnits="userSpaceOnUse">
<stop stop-color="#FF5360" stop-opacity="0.6"/>
<stop offset="1" stop-color="#FCD660"/>
</linearGradient>
<linearGradient id="paint16_linear_3474_794" x1="165.68" y1="167.314" x2="186.765" y2="167.314" gradientUnits="userSpaceOnUse">
<stop stop-color="#012A56"/>
<stop offset="1" stop-color="#012A56" stop-opacity="0.3"/>
</linearGradient>
<linearGradient id="paint17_linear_3474_794" x1="58.6752" y1="161.461" x2="125.856" y2="161.461" gradientUnits="userSpaceOnUse">
<stop stop-color="#012A56"/>
<stop offset="1" stop-color="#012A56" stop-opacity="0.3"/>
</linearGradient>
<clipPath id="clip0_3474_794">
<rect width="236" height="182" fill="white"/>
</clipPath>
</defs>
</svg>
