<svg width="133" height="132" viewBox="0 0 133 132" fill="none" xmlns="http://www.w3.org/2000/svg">
<g clip-path="url(#clip0_10316_1787)">
<path d="M64.6714 110.349L70.6944 110.16L71.7074 107.051L73.6075 106.997L69.0431 120.881L66.9643 120.948L61.5723 107.373L63.4724 107.32L64.6743 110.36L64.6714 110.349ZM65.2297 111.795L67.9436 118.691L70.2254 111.641L65.2297 111.795Z" fill="#27DEF2"/>
<path d="M50.7475 111.63C51.6969 111.091 52.9561 111.027 54.5114 111.43L57.0832 112.097L58.5271 106.514L60.2783 106.968L56.8186 120.339L52.5064 119.215C50.9993 118.821 49.9442 118.158 49.3439 117.236C48.7515 116.301 48.5978 115.26 48.8935 114.11C49.1765 112.997 49.798 112.169 50.7475 111.63ZM51.8296 112.947C51.2606 113.247 50.872 113.796 50.6687 114.568C50.2453 116.22 50.9762 117.289 52.8613 117.775L55.4331 118.442L56.7041 113.532L54.1324 112.865C53.1643 112.612 52.3851 112.638 51.8161 112.939L51.8296 112.947Z" fill="#27DEF2"/>
<path d="M39.6434 106.082C40.696 105.8 41.9286 106.062 43.3384 106.858L45.6485 108.165L48.485 103.143L50.0566 104.032L43.2742 116.06L39.3954 113.874C38.0395 113.109 37.1911 112.197 36.8531 111.148C36.5122 110.089 36.6336 109.053 37.2195 108.007C37.7819 107.002 38.5909 106.364 39.6463 106.092L39.6434 106.082ZM40.3557 107.634C39.7228 107.781 39.2198 108.201 38.8151 108.902C37.9831 110.39 38.4121 111.608 40.1156 112.564L42.4258 113.871L44.912 109.456L42.6018 108.149C41.7284 107.654 40.9752 107.48 40.3423 107.627L40.3557 107.634Z" fill="#27DEF2"/>
<path d="M38.6174 98.2545L35.0436 94.9958L36.0292 93.9113L40.9318 98.3864L31.6197 108.585L30.2909 107.368L38.6174 98.2545Z" fill="#27DEF2"/>
<path d="M23.3311 99.9801L34.0816 91.3221L35.2106 92.7289L24.4601 101.387L23.3311 99.9801Z" fill="#27DEF2"/>
<path d="M22.7102 94.0045C21.4807 93.9237 20.3635 93.5394 19.3587 92.8514C18.3539 92.1634 17.5722 91.2448 17.0241 90.0925C16.3766 88.7391 16.1297 87.3922 16.2997 86.0704C16.4697 84.7486 17.0397 83.5589 18.0261 82.5197L18.9587 84.4691C18.3725 85.1731 18.0331 85.9478 17.9405 86.7931C17.8479 87.6383 18.0149 88.5166 18.4492 89.4144C18.8643 90.2832 19.4472 90.9703 20.1845 91.4678C20.9218 91.9654 21.7566 92.2317 22.689 92.2667C23.6214 92.3018 24.5868 92.0773 25.5881 91.6039C26.5788 91.1333 27.348 90.5169 27.8988 89.7654C28.4495 89.0139 28.7669 88.1996 28.848 87.3118C28.9186 86.4268 28.7516 85.5485 28.3365 84.6798C27.8994 83.7713 27.3299 83.0921 26.6147 82.6342C25.8994 82.1763 25.0895 81.9603 24.1791 81.9649L23.2465 80.0155C24.6652 79.9089 25.9304 80.208 27.0636 80.9072C28.1967 81.6063 29.0899 82.6433 29.7375 83.9967C30.2855 85.1489 30.5244 86.3384 30.4351 87.5361C30.3486 88.7443 29.9508 89.8537 29.2522 90.8614C28.5536 91.869 27.5952 92.6728 26.3821 93.2486C25.1689 93.8243 23.9398 94.0853 22.7074 93.9939L22.7102 94.0045Z" fill="#27DEF2"/>
<path d="M22.5544 68.8853L23.3011 74.8615L26.4904 75.5795L26.7224 77.4659L12.4742 74.2186L12.2179 72.1564L25.2291 65.5136L25.461 67.4L22.5544 68.8853ZM21.167 69.5762L14.5536 72.9208L21.7898 74.5372L21.1698 69.5868L21.167 69.5762Z" fill="#27DEF2"/>
<path d="M13.1729 53.6909L14.621 53.9068L14.0561 57.6249L26.2571 59.4836L25.9827 61.2664L13.7817 59.4078L13.2118 63.15L11.7637 62.934L13.1729 53.6909Z" fill="#27DEF2"/>
<path d="M15.0466 48.0951L28.1136 52.5478L27.5335 54.253L14.4665 49.8003L15.0466 48.0951Z" fill="#27DEF2"/>
<path d="M29.3761 47.4349C28.2991 48.0083 27.1501 48.2706 25.9185 48.2246C24.6733 48.1708 23.4895 47.7929 22.3507 47.0725C21.2118 46.352 20.345 45.4562 19.7552 44.3607C19.1654 43.2653 18.9031 42.1163 18.9549 40.9059C19.0066 39.6955 19.3689 38.5387 20.0582 37.4537C20.7447 36.3582 21.625 35.5184 22.6914 34.9477C23.7684 34.3743 24.9174 34.112 26.1384 34.1608C27.3729 34.2175 28.5596 34.606 29.7091 35.3236C30.8614 36.0518 31.7282 36.9477 32.3151 38.0325C32.9021 39.1173 33.1644 40.2664 33.1126 41.4767C33.0609 42.6871 32.6879 43.8468 32.0015 44.9423C31.3228 46.0244 30.4425 46.8643 29.3761 47.4349ZM31.4905 41.5467C31.5234 40.6491 31.2955 39.7985 30.8252 38.9787C30.3548 38.1589 29.6542 37.4579 28.7232 36.8754C27.7788 36.2852 26.8468 35.9538 25.9087 35.8975C24.9783 35.8277 24.1135 36.0025 23.3249 36.4189C22.5362 36.8353 21.879 37.4445 21.3617 38.2782C20.8444 39.1119 20.5703 39.9602 20.548 40.8551C20.5228 41.7392 20.7401 42.5926 21.2076 43.4018C21.6751 44.2109 22.3757 44.912 23.3095 45.5051C24.2405 46.0875 25.1697 46.4083 26.1106 46.4752C27.0516 46.5422 27.9164 46.3674 28.705 45.951C29.4937 45.5345 30.1481 44.9148 30.6604 44.1052C31.17 43.2849 31.444 42.4366 31.477 41.5389L31.4905 41.5467Z" fill="#27DEF2"/>
<path d="M45.1517 31.3339L43.7449 32.4629L31.2081 28.4152L38.0888 36.9982L36.682 38.1273L28.0367 27.3392L29.4435 26.2101L41.9641 30.2394L35.0997 21.6748L36.5064 20.5458L45.1517 31.3339Z" fill="#27DEF2"/>
<path d="M58.7467 25.5944C57.6358 25.1057 56.7153 24.3496 56.0015 23.3444C55.2878 22.3391 54.8567 21.1555 54.7168 19.8256C54.577 18.4956 54.7669 17.2482 55.2711 16.1103C55.7753 14.9725 56.5208 14.0548 57.5076 13.3574C58.5022 12.6464 59.6355 12.2402 60.9094 12.104C62.1969 11.9755 63.396 12.1556 64.507 12.6442C65.6179 13.1328 66.5355 13.8783 67.2387 14.8864C67.9418 15.8945 68.3701 17.0674 68.5156 18.4187C68.6505 19.7727 68.4712 21.0173 67.9748 22.1417C67.4784 23.2661 66.7329 24.1838 65.7461 24.8812C64.7515 25.5921 63.6182 25.9983 62.3308 26.1268C61.054 26.2524 59.8654 26.0695 58.7545 25.5809L58.7467 25.5944ZM64.6974 23.6466C65.4228 23.1218 65.9637 22.4185 66.3122 21.5502C66.6713 20.6791 66.7963 19.6998 66.6844 18.6017C66.5725 17.5035 66.2523 16.5637 65.7345 15.7795C65.2089 15.0087 64.5424 14.4352 63.7351 14.0589C62.9306 13.6933 62.0392 13.5561 61.0637 13.658C60.0882 13.7598 59.247 14.065 58.5322 14.587C57.8174 15.109 57.2737 15.8016 56.9252 16.6699C56.5661 17.541 56.441 18.5203 56.5558 19.6291C56.6649 20.7166 56.9851 21.6564 57.5029 22.4407C58.0313 23.2221 58.6978 23.7956 59.5051 24.1719C60.3231 24.5452 61.201 24.6746 62.1659 24.5756C63.1201 24.4795 63.972 24.1715 64.6868 23.6495L64.6974 23.6466Z" fill="#27DEF2"/>
<path d="M79.944 20.7122C79.0166 21.2912 77.7639 21.4217 76.1909 21.0797L73.5945 20.5333L72.4051 26.1736L70.642 25.8028L73.5066 12.2953L77.8689 13.2231C79.3909 13.5446 80.4771 14.1538 81.1199 15.0641C81.7627 15.9745 81.9589 17.0044 81.7114 18.1647C81.4766 19.2874 80.8955 20.1382 79.9681 20.7171L79.944 20.7122ZM78.8066 19.4444C79.3564 19.1148 79.7209 18.5613 79.8866 17.7762C80.2377 16.1096 79.4594 15.076 77.5488 14.665L74.9524 14.1186L73.9012 19.0837L76.4976 19.6301C77.4755 19.8353 78.2462 19.7769 78.8066 19.4444Z" fill="#27DEF2"/>
<path d="M88.0055 18.0508L85.9848 22.2045L90.5075 24.4113L89.8518 25.7493L85.3291 23.5425L83.249 27.8148L88.3073 30.2768L87.6516 31.6148L80.9673 28.3578L87.0273 15.9313L93.7117 19.1883L93.056 20.5263L87.9977 18.0643L88.0055 18.0508Z" fill="#27DEF2"/>
<path d="M97.4798 39.7157L96.1326 38.5155L98.0172 25.4757L90.7141 33.6886L89.367 32.4884L98.5514 22.1533L99.8985 23.3535L98.0217 36.3798L105.317 28.1804L106.664 29.3806L97.4798 39.7157Z" fill="#27DEF2"/>
<path d="M106.918 60.1824L106.408 58.4502L114.914 48.3882L104.364 51.4999L103.854 49.7677L117.119 45.86L117.629 47.5922L109.145 57.6486L119.677 54.5531L120.186 56.2854L106.921 60.1931L106.918 60.1824Z" fill="#27DEF2"/>
<path d="M107.95 65.0111C108.597 63.983 109.478 63.1885 110.582 62.6306C111.686 62.0727 112.918 61.8223 114.257 61.8853C115.606 61.9453 116.801 62.3204 117.842 62.9757C118.887 63.6416 119.681 64.5227 120.233 65.6055C120.786 66.6882 121.025 67.8776 120.966 69.1469C120.902 70.4402 120.55 71.5942 119.892 72.6252C119.245 73.6534 118.364 74.4478 117.27 75.0029C116.177 75.5579 114.945 75.8083 113.582 75.7404C112.219 75.6726 111.028 75.3081 109.986 74.6528C108.944 73.9975 108.153 73.1271 107.601 72.0443C107.048 70.9616 106.81 69.7722 106.873 68.4788C106.94 67.1961 107.291 66.0421 107.942 65.0246L107.95 65.0111ZM108.988 71.1826C109.394 71.9741 110.011 72.6179 110.822 73.0955C111.634 73.5731 112.584 73.8428 113.682 73.9018C114.791 73.9579 115.768 73.7759 116.618 73.3772C117.469 72.9784 118.134 72.4011 118.618 71.6561C119.103 70.911 119.374 70.0521 119.419 69.0714C119.464 68.0908 119.286 67.2154 118.87 66.4267C118.453 65.6381 117.85 65.0021 117.049 64.5216C116.248 64.0412 115.287 63.7743 114.178 63.7182C113.083 63.6699 112.114 63.8384 111.253 64.24C110.402 64.6388 109.726 65.2189 109.242 65.9639C108.758 66.709 108.487 67.5679 108.449 68.5351C108.412 69.5022 108.59 70.3777 108.996 71.1692L108.988 71.1826Z" fill="#27DEF2"/>
<path d="M111.562 98.309L100.828 88.7415L101.697 86.9247L113.111 88.8233L104.516 81.03L105.364 79.2189L119.509 81.6963L118.675 83.4351L106.813 81.0982L115.944 89.1467L115.075 90.9636L103.175 88.7848L112.392 96.5596L111.551 98.3119L111.562 98.309Z" fill="#27DEF2"/>
<path d="M93.0314 108.254C94.6932 107.809 95.6793 106.101 95.2341 104.439C94.7888 102.777 93.0807 101.791 91.419 102.236C89.7573 102.682 88.7711 104.39 89.2164 106.051C89.6616 107.713 91.3697 108.699 93.0314 108.254Z" fill="#27DEF2"/>
</g>
<defs>
<clipPath id="clip0_10316_1787">
<rect width="108.683" height="107.263" fill="white" transform="translate(0.164551 28.278) rotate(-15)"/>
</clipPath>
</defs>
</svg>
