<svg width="48" height="48" viewBox="0 0 48 48" fill="none" xmlns="http://www.w3.org/2000/svg">
<g clip-path="url(#clip0_3474_619)">
<path d="M29.0717 11.7608L24.7932 10.7747L18.9228 36.2428L23.2012 37.229L29.0717 11.7608Z" fill="#FF5347"/>
<path d="M13.5178 12.4139L4.49121 21.4436L7.59758 24.5489L16.6241 15.5192L13.5178 12.4139Z" fill="#07F184"/>
<path d="M4.49254 21.4442L1.38672 24.55L4.49254 27.6559L7.59837 24.55L4.49254 21.4442Z" fill="#00BF5B"/>
<path d="M7.5963 24.5499L4.49048 27.6558L13.5186 36.6839L16.6244 33.5781L7.5963 24.5499Z" fill="#28DCF3"/>
<path d="M34.4841 12.4201L31.3777 15.5254L40.4042 24.5551L43.5106 21.4498L34.4841 12.4201Z" fill="#049DDF"/>
<path d="M43.5101 21.4442L40.4043 24.55L43.5101 27.6559L46.6159 24.55L43.5101 21.4442Z" fill="#004C84"/>
<path d="M40.4041 24.552L31.376 33.5801L34.4818 36.6859L43.5099 27.6578L40.4041 24.552Z" fill="#7161DA"/>
<path d="M23.4503 37.6211L29.469 11.5098L24.5474 10.3753L18.5287 36.4867L23.4503 37.6211Z" fill="#FF5347"/>
<path d="M17.0899 15.5207L8.06273 24.5495L7.59578 24.0826L4.49048 20.9789L13.5176 11.9485L17.0899 15.5207Z" fill="#07F184"/>
<path d="M8.06277 24.5494L7.59582 25.0163L4.49052 28.1216L4.02522 27.6547L0.919922 24.5494L4.02522 21.4441L4.49052 20.9788L7.59582 24.0824L8.06277 24.5494Z" fill="#00BF5B"/>
<path d="M17.0899 33.5784L13.5176 37.1506L4.49048 28.1218L7.59578 25.0165L8.06273 24.5496L17.0899 33.5784Z" fill="#28DCF3"/>
<path d="M43.5096 20.9789L40.4043 24.0826L39.9373 24.5495L30.9102 15.5207L34.4824 11.9485L43.5096 20.9789Z" fill="#049DDF"/>
<path d="M47.0801 24.5494L43.9748 27.6547L43.5095 28.1216L40.4042 25.0163L39.9373 24.5494L40.4042 24.0824L43.5095 20.9788L43.9748 21.4441L47.0801 24.5494Z" fill="#004C84"/>
<path d="M43.5096 28.1218L34.4824 37.1506L30.9102 33.5784L39.9373 24.5496L40.4043 25.0165L43.5096 28.1218Z" fill="#7161DA"/>
</g>
<defs>
<clipPath id="clip0_3474_619">
<rect width="48" height="48" fill="white"/>
</clipPath>
</defs>
</svg>
