<svg width="45" height="48" viewBox="0 0 45 48" fill="none" xmlns="http://www.w3.org/2000/svg">
<path d="M11.5727 38.2329L18 34.5219L15.1875 29.6422L12.375 24.7625L5.91328 28.491C5.72456 27.4729 5.625 26.445 5.625 25.4095C5.625 22.9105 6.19387 20.4786 7.26347 18.231L2.38481 15.3984C0.830625 18.5179 0 21.9102 0 25.4095C0 29.5033 1.11394 33.3346 3.02569 36.6496C6.69253 43.0077 13.3494 47.5238 21.0938 48.0033V42.2135C17.5451 41.9191 14.2416 40.5059 11.5727 38.2329Z" fill="#57D9AD"/>
<path d="M21.0954 48.0017V42.2118C17.5468 41.9175 14.2432 40.5043 11.5743 38.2314L18.0017 34.5204L15.1892 29.6406L3.02734 36.648C6.69419 43.0061 13.3511 47.5222 21.0954 48.0017Z" fill="#26BFA6"/>
<path d="M42.6297 15.4141L37.742 18.2495C38.8512 20.5742 39.375 23.0106 39.375 25.4041C39.375 26.4389 39.2756 27.4678 39.0861 28.4894L32.6249 24.7571L29.8124 29.6368L26.9999 34.5166L33.4331 38.2227C30.7642 40.4977 27.4583 41.9133 23.9062 42.208V47.9978C31.6504 47.5184 38.3073 43.0026 41.9743 36.6443C43.8861 33.3295 45 29.498 45 25.4041C45 21.9903 44.2232 18.5887 42.6297 15.4141Z" fill="#FFEA80"/>
<path d="M42.6298 15.4141L37.7421 18.2495C38.8513 20.5742 39.3751 23.0106 39.3751 25.4041C39.3751 26.4389 39.2757 27.4678 39.0862 28.4894L32.625 24.7571L29.8125 29.6368L41.9744 36.6443C43.8862 33.3295 45.0001 29.498 45.0001 25.4041C45.0001 21.9902 44.2233 18.5887 42.6298 15.4141Z" fill="#FFCC66"/>
<path d="M22.5007 2.90625C15.2769 2.90625 8.27834 6.3015 3.76953 12.9469L8.66328 15.7873C10.5514 13.005 13.4902 10.7217 16.8757 9.51553V16.9688H22.5007H28.1257V9.51553C31.336 10.6593 34.2973 12.8081 36.3381 15.8155L41.2318 12.9749C37.7236 7.32291 30.618 2.90625 22.5007 2.90625Z" fill="#F25555"/>
<path d="M28.125 9.51553C31.3353 10.6593 34.2966 12.8081 36.3374 15.8155L41.2312 12.9749C37.7229 7.32291 30.6173 2.90625 22.5 2.90625V16.9688H28.125V9.51553Z" fill="#D93752"/>
<path d="M22.5 0C20.17 0 18.2812 1.98253 18.2812 4.3125C18.2812 6.64247 20.17 8.53125 22.5 8.53125C24.83 8.53125 26.7188 6.64247 26.7188 4.3125C26.7188 1.98253 24.83 0 22.5 0Z" fill="#FFE6CC"/>
<path d="M26.7188 4.3125C26.7188 1.98253 24.83 0 22.5 0V8.53125C24.83 8.53125 26.7188 6.64247 26.7188 4.3125Z" fill="#FFCCB3"/>
<path d="M8.09768 33.7234C6.88146 31.6165 4.1853 31.0986 2.35887 32.1587C0.338272 33.321 -0.35351 35.9045 0.812553 37.921C1.96305 39.9128 4.53677 40.6412 6.57621 39.4646C8.46865 38.3744 9.35065 35.8951 8.09768 33.7234Z" fill="#FFE6CC"/>
<path d="M6.57616 39.4678C8.46859 38.3777 9.35059 35.8983 8.09762 33.7266L0.8125 37.9242C1.96291 39.916 4.53663 40.6444 6.57616 39.4678Z" fill="#FFCCB3"/>
<path d="M42.6417 32.1549C40.5367 30.9396 38.0844 31.7702 36.8801 33.7079C35.7609 35.5091 36.2906 38.2315 38.4243 39.4622C40.4686 40.6421 43.0447 39.8978 44.1879 37.9186C45.3402 35.9234 44.6869 33.3354 42.6417 32.1549Z" fill="#E77B45"/>
<path d="M42.6405 32.1549C40.5355 30.9396 38.0832 31.7702 36.8789 33.7079L44.1868 37.9186C45.339 35.9234 44.6857 33.3354 42.6405 32.1549Z" fill="#CC5229"/>
</svg>
